<svg width="692" height="302" viewBox="0 0 692 302" fill="none" xmlns="http://www.w3.org/2000/svg">
<path d="M0 21.1035C0 14.4761 5.37258 9.10352 12 9.10352H304C310.627 9.10352 316 14.4761 316 21.1035V138.111C316 142.578 313.518 146.676 309.56 148.745L163.56 225.072C160.077 226.893 155.923 226.893 152.44 225.072L6.44046 148.745C2.48154 146.676 0 142.578 0 138.111V21.1035Z" fill="black"/>
<path d="M125.656 137.43L188.54 137.431C189.332 137.431 189.988 138.047 190.037 138.837L197.954 265.191C197.983 265.66 197.791 266.116 197.436 266.422L158.262 300.162C157.701 300.645 156.87 300.646 156.308 300.165L116.856 266.42C116.499 266.114 116.305 265.658 116.334 265.188L124.159 138.837C124.208 138.046 124.864 137.43 125.656 137.43Z" fill="url(#paint0_linear_1026_2347)" stroke="#C33838"/>
<g filter="url(#filter0_d_1026_2347)">
<path d="M119.481 136.933H99.9989C99.4726 136.933 99.0364 137.341 99.0012 137.866L92.2196 238.948C92.1713 239.668 92.8775 240.2 93.5561 239.956L156.078 217.441C156.63 217.242 156.893 216.614 156.647 216.081L120.388 137.514C120.225 137.159 119.871 136.933 119.481 136.933Z" fill="url(#paint1_linear_1026_2347)"/>
<path d="M99.999 137.433H119.48C119.675 137.433 119.853 137.546 119.935 137.723L156.193 216.291C156.316 216.557 156.185 216.871 155.909 216.971L93.3867 239.485C93.0474 239.608 92.6946 239.341 92.7188 238.981L99.5 137.899C99.5176 137.637 99.7359 137.433 99.999 137.433Z" stroke="#C33838"/>
</g>
<g filter="url(#filter1_d_1026_2347)">
<path d="M194.769 136.933H214.251C214.777 136.933 215.214 137.341 215.249 137.866L222.03 238.948C222.079 239.668 221.372 240.2 220.694 239.956L158.172 217.441C157.62 217.242 157.357 216.614 157.603 216.081L193.862 137.514C194.025 137.159 194.379 136.933 194.769 136.933Z" fill="url(#paint2_linear_1026_2347)"/>
<path d="M214.251 137.433H194.77C194.575 137.433 194.397 137.546 194.315 137.723L158.057 216.291C157.934 216.557 158.065 216.871 158.341 216.971L220.863 239.485C221.203 239.608 221.555 239.341 221.531 238.981L214.75 137.899C214.732 137.637 214.514 137.433 214.251 137.433Z" stroke="#C33838"/>
</g>
<g filter="url(#filter2_f_1026_2347)" style="mix-blend-mode:lighten">
<path d="M158 32.5449L252.77 83.8955V186.597L158 237.947L63.2294 186.597L63.2294 83.8955L158 32.5449Z" fill="url(#paint3_linear_1026_2347)"/>
</g>
<g filter="url(#filter3_f_1026_2347)" style="mix-blend-mode:lighten">
<path d="M158 32.5449L252.77 83.8955V186.597L158 237.947L63.2294 186.597L63.2294 83.8955L158 32.5449Z" fill="url(#paint4_linear_1026_2347)"/>
</g>
<g filter="url(#filter4_f_1026_2347)" style="mix-blend-mode:lighten">
<path d="M158 32.5449L252.77 83.8955V186.597L158 237.947L63.2294 186.597L63.2294 83.8955L158 32.5449Z" fill="url(#paint5_linear_1026_2347)"/>
</g>
<g filter="url(#filter5_di_1026_2347)">
<path d="M155.24 36.1048C156.428 35.4607 157.862 35.4607 159.051 36.1048L247.493 84.0266C248.784 84.7258 249.587 86.0757 249.587 87.5435V182.958C249.587 184.425 248.784 185.775 247.493 186.475L159.051 234.396C157.862 235.04 156.428 235.04 155.24 234.396L66.7976 186.475C65.5071 185.775 64.7032 184.425 64.7032 182.958V87.5435C64.7032 86.0757 65.5071 84.7258 66.7976 84.0266L155.24 36.1048Z" fill="url(#paint6_linear_1026_2347)"/>
</g>
<path d="M249.725 185.342V85.1642L203.504 60.1196L111.061 210.387L157.282 235.432L249.725 185.342Z" fill="url(#paint7_linear_1026_2347)"/>
<path d="M64.7031 85.1614V185.34L110.924 210.384L203.366 60.1168L157.145 35.0723L64.7031 85.1614Z" fill="url(#paint8_linear_1026_2347)"/>
<path d="M156.67 52.0322C156.967 51.8715 157.325 51.8715 157.622 52.0322L233.798 93.3076C234.12 93.4824 234.321 93.8197 234.321 94.1865V176.308C234.321 176.675 234.12 177.013 233.798 177.188L157.622 218.462C157.325 218.623 156.967 218.623 156.67 218.462L80.4941 177.188C80.1715 177.013 79.9707 176.675 79.9707 176.308V94.1865C79.9708 93.8197 80.1716 93.4824 80.4941 93.3076L156.67 52.0322Z" stroke="url(#paint9_linear_1026_2347)" stroke-width="6"/>
<path d="M156.669 56.5205C156.966 56.3595 157.325 56.3596 157.622 56.5205L229.658 95.5527C229.981 95.7275 230.182 96.0657 230.182 96.4326V174.067C230.182 174.434 229.981 174.772 229.658 174.947L157.622 213.979C157.325 214.14 156.966 214.14 156.669 213.979L84.6328 174.947C84.3102 174.772 84.1094 174.434 84.1094 174.067V96.4326C84.1094 96.0657 84.3102 95.7276 84.6328 95.5527L156.669 56.5205Z" stroke="url(#paint10_linear_1026_2347)" stroke-width="6"/>
<g filter="url(#filter6_d_1026_2347)">
<path d="M167.771 109.858C168.52 110.919 168.066 112.403 166.98 113.115C163.409 115.457 161.033 119.625 161.033 124.377C161.033 131.702 166.678 137.641 173.642 137.641C180.605 137.64 186.25 131.702 186.25 124.377C186.25 123.72 186.204 123.073 186.116 122.442C185.98 121.459 186.446 120.458 187.356 120.063L196.352 116.153C197.781 115.532 199.339 116.71 199.131 118.254L195.901 142.259C195.865 142.526 195.625 142.716 195.356 142.716C192.103 142.716 189.467 145.489 189.467 148.91C189.467 151.227 190.677 153.247 192.468 154.309C193.369 154.843 194.081 155.785 193.942 156.822L193.421 160.697C193.33 161.367 192.908 161.946 192.298 162.236L157.757 178.684C157.213 178.943 156.581 178.943 156.037 178.684L121.505 162.241C120.89 161.948 120.466 161.362 120.381 160.685L119.924 157.056C119.786 155.957 120.599 154.982 121.584 154.474C123.537 153.466 124.882 151.353 124.882 148.91C124.882 145.489 122.246 142.716 118.993 142.716C118.518 142.716 118.081 142.393 118.021 141.921L115.05 118.281C114.855 116.731 116.434 115.566 117.858 116.209L125.596 119.705C126.507 120.117 126.958 121.137 126.797 122.124C126.678 122.856 126.616 123.609 126.616 124.377C126.616 131.702 132.261 137.641 139.224 137.641C146.188 137.641 151.832 131.702 151.832 124.377C151.832 119.851 149.677 115.855 146.387 113.462C145.364 112.718 144.979 111.268 145.728 110.248L155.461 96.9989C156.269 95.8985 157.918 95.9137 158.706 97.0288L167.771 109.858Z" fill="url(#paint11_linear_1026_2347)"/>
<path d="M153.85 95.8145C155.466 93.6141 158.764 93.6448 160.34 95.875L169.404 108.704C170.955 110.898 169.88 113.604 168.077 114.787C165.071 116.758 163.033 120.297 163.033 124.377C163.033 130.694 167.877 135.641 173.642 135.641C179.406 135.641 184.25 130.694 184.25 124.377C184.25 123.812 184.211 123.257 184.136 122.717C183.896 120.995 184.695 119.038 186.559 118.229L195.555 114.319C198.412 113.078 201.528 115.433 201.113 118.521L197.883 142.525C197.699 143.889 196.518 144.716 195.355 144.716C193.302 144.716 191.467 146.497 191.467 148.91C191.467 150.526 192.308 151.889 193.488 152.589C194.741 153.332 196.214 154.928 195.924 157.089L195.402 160.964C195.222 162.303 194.378 163.461 193.158 164.042L158.616 180.49C157.528 181.008 156.265 181.008 155.177 180.49L120.646 164.047C119.414 163.461 118.567 162.288 118.396 160.935L117.94 157.306C117.652 155.013 119.321 153.391 120.667 152.696C121.946 152.036 122.882 150.615 122.882 148.91C122.882 146.497 121.047 144.716 118.993 144.716C117.703 144.716 116.245 143.822 116.037 142.171L113.065 118.531C112.676 115.431 115.833 113.1 118.681 114.387L126.419 117.883C128.286 118.726 129.052 120.717 128.771 122.444C128.67 123.071 128.616 123.717 128.616 124.377C128.616 130.694 133.46 135.641 139.225 135.641C144.989 135.64 149.832 130.694 149.832 124.377C149.832 120.492 147.984 117.098 145.211 115.08C143.5 113.835 142.568 111.172 144.116 109.064L153.85 95.8145Z" stroke="#F27600" stroke-width="4"/>
</g>
<mask id="mask0_1026_2347" style="mask-type:alpha" maskUnits="userSpaceOnUse" x="64" y="35" width="186" height="200">
<path d="M155.24 36.1038C156.428 35.4597 157.862 35.4597 159.051 36.1038L247.493 84.0256C248.784 84.7249 249.587 86.0747 249.587 87.5425V182.957C249.587 184.424 248.784 185.774 247.493 186.474L159.051 234.395C157.862 235.039 156.428 235.039 155.24 234.395L66.7976 186.474C65.5071 185.774 64.7032 184.424 64.7032 182.957V87.5425C64.7032 86.0748 65.5071 84.7249 66.7976 84.0256L155.24 36.1038Z" fill="url(#paint12_linear_1026_2347)"/>
</mask>
<g mask="url(#mask0_1026_2347)">
<rect width="249.954" height="52.4103" transform="matrix(0.60831 -0.793699 0.793698 0.608312 35.6797 188.569)" fill="url(#paint13_linear_1026_2347)" fill-opacity="0.2"/>
<rect width="249.954" height="46.6575" transform="matrix(0.577699 -0.81625 0.816249 0.5777 105.326 245.989)" fill="url(#paint14_linear_1026_2347)" fill-opacity="0.2"/>
</g>
<path d="M376 21.1035C376 14.4761 381.373 9.10352 388 9.10352H680C686.627 9.10352 692 14.4761 692 21.1035V138.111C692 142.578 689.518 146.676 685.56 148.745L539.56 225.072C536.077 226.893 531.923 226.893 528.44 225.072L382.44 148.745C378.482 146.676 376 142.578 376 138.111V21.1035Z" fill="black"/>
<path d="M486.127 124.646L579.945 124.647C580.713 124.647 581.357 125.227 581.438 125.99L592.947 234.994C593.009 235.581 592.722 236.15 592.212 236.447L533.818 270.531C533.351 270.804 532.772 270.804 532.305 270.531L473.993 236.446C473.485 236.149 473.197 235.582 473.258 234.996L484.636 125.991C484.715 125.227 485.359 124.647 486.127 124.646Z" fill="url(#paint15_linear_1026_2347)" stroke="#A038C3"/>
<g filter="url(#filter7_f_1026_2347)" style="mix-blend-mode:lighten">
<path d="M534 24L633.405 77.8619V185.586L534 239.448L434.595 185.586V77.8619L534 24Z" fill="url(#paint16_linear_1026_2347)"/>
</g>
<g filter="url(#filter8_f_1026_2347)" style="mix-blend-mode:lighten">
<path d="M534 24L633.405 77.8619V185.586L534 239.448L434.595 185.586V77.8619L534 24Z" fill="url(#paint17_linear_1026_2347)"/>
</g>
<g filter="url(#filter9_f_1026_2347)" style="mix-blend-mode:lighten">
<path d="M534 24L633.405 77.8619V185.586L534 239.448L434.595 185.586V77.8619L534 24Z" fill="url(#paint18_linear_1026_2347)"/>
</g>
<g filter="url(#filter10_di_1026_2347)">
<path d="M531.199 27.6849C532.387 27.0408 533.821 27.0408 535.01 27.6849L627.973 78.0563C629.264 78.7556 630.068 80.1054 630.068 81.5732V181.887C630.068 183.354 629.264 184.704 627.973 185.404L535.01 235.775C533.821 236.419 532.387 236.419 531.199 235.775L438.235 185.404C436.945 184.704 436.141 183.354 436.141 181.887V81.5732C436.141 80.1054 436.945 78.7556 438.235 78.0563L531.199 27.6849Z" fill="url(#paint19_linear_1026_2347)"/>
</g>
<path d="M630.211 184.269V79.1913L581.729 52.9219L484.766 210.538L533.248 236.808L630.211 184.269Z" fill="url(#paint20_linear_1026_2347)"/>
<path d="M436.142 79.1911V184.269L484.623 210.538L581.587 52.9217L533.105 26.6523L436.142 79.1911Z" fill="url(#paint21_linear_1026_2347)"/>
<path d="M532.628 44.2646C532.925 44.1036 533.284 44.1036 533.581 44.2646L613.678 87.665C614 87.8399 614.201 88.1771 614.201 88.5439V174.914C614.201 175.281 614 175.618 613.678 175.793L533.581 219.193C533.284 219.354 532.925 219.354 532.628 219.193L452.531 175.793C452.209 175.618 452.008 175.281 452.008 174.914V88.5439C452.008 88.1771 452.209 87.8399 452.531 87.665L532.628 44.2646Z" stroke="url(#paint22_linear_1026_2347)" stroke-width="6"/>
<path d="M532.629 48.9707C532.926 48.81 533.284 48.8099 533.581 48.9707L609.336 90.0186C609.659 90.1934 609.86 90.5305 609.86 90.8975V172.562C609.86 172.929 609.659 173.267 609.336 173.441L533.581 214.489C533.284 214.65 532.926 214.65 532.629 214.489L456.873 173.441C456.551 173.267 456.35 172.929 456.35 172.562V90.8975C456.35 90.5307 456.551 90.1934 456.873 90.0186L532.629 48.9707Z" stroke="url(#paint23_linear_1026_2347)" stroke-width="6"/>
<path d="M555.498 99.4512C557.836 97.1394 561.599 97.1394 563.937 99.4512L583.965 119.26C586.339 121.608 586.339 125.444 583.965 127.792L538.22 173.033C535.882 175.345 532.119 175.345 529.781 173.033L484.037 127.792C481.663 125.444 481.663 121.608 484.037 119.26L504.064 99.4512C506.402 97.1393 510.165 97.1395 512.503 99.4512L532.595 119.321C533.374 120.092 534.628 120.092 535.407 119.321L555.498 99.4512Z" fill="url(#paint24_linear_1026_2347)" stroke="#D90560" stroke-width="4"/>
<mask id="mask1_1026_2347" style="mask-type:alpha" maskUnits="userSpaceOnUse" x="436" y="27" width="195" height="210">
<path d="M531.199 27.682C532.387 27.0378 533.821 27.0378 535.01 27.682L627.973 78.0534C629.264 78.7526 630.068 80.1025 630.068 81.5703V181.884C630.068 183.351 629.264 184.701 627.973 185.401L535.01 235.772C533.821 236.416 532.387 236.416 531.199 235.772L438.235 185.401C436.945 184.701 436.141 183.351 436.141 181.884V81.5703C436.141 80.1025 436.945 78.7526 438.235 78.0534L531.199 27.682Z" fill="url(#paint25_linear_1026_2347)"/>
</mask>
<g mask="url(#mask1_1026_2347)">
<rect x="405.698" y="187.659" width="262.178" height="54.9736" transform="rotate(-52.5325 405.698 187.659)" fill="url(#paint26_linear_1026_2347)" fill-opacity="0.2"/>
<rect x="478.751" y="247.883" width="262.178" height="48.9394" transform="rotate(-54.7111 478.751 247.883)" fill="url(#paint27_linear_1026_2347)" fill-opacity="0.2"/>
</g>
<defs>
<filter id="filter0_d_1026_2347" x="90.2168" y="134.933" width="72.5225" height="111.084" filterUnits="userSpaceOnUse" color-interpolation-filters="sRGB">
<feFlood flood-opacity="0" result="BackgroundImageFix"/>
<feColorMatrix in="SourceAlpha" type="matrix" values="0 0 0 0 0 0 0 0 0 0 0 0 0 0 0 0 0 0 127 0" result="hardAlpha"/>
<feOffset dx="2" dy="2"/>
<feGaussianBlur stdDeviation="2"/>
<feComposite in2="hardAlpha" operator="out"/>
<feColorMatrix type="matrix" values="0 0 0 0 0 0 0 0 0 0 0 0 0 0 0 0 0 0 0.25 0"/>
<feBlend mode="normal" in2="BackgroundImageFix" result="effect1_dropShadow_1026_2347"/>
<feBlend mode="normal" in="SourceGraphic" in2="effect1_dropShadow_1026_2347" result="shape"/>
</filter>
<filter id="filter1_d_1026_2347" x="151.511" y="134.933" width="72.5225" height="111.084" filterUnits="userSpaceOnUse" color-interpolation-filters="sRGB">
<feFlood flood-opacity="0" result="BackgroundImageFix"/>
<feColorMatrix in="SourceAlpha" type="matrix" values="0 0 0 0 0 0 0 0 0 0 0 0 0 0 0 0 0 0 127 0" result="hardAlpha"/>
<feOffset dx="-2" dy="2"/>
<feGaussianBlur stdDeviation="2"/>
<feComposite in2="hardAlpha" operator="out"/>
<feColorMatrix type="matrix" values="0 0 0 0 0 0 0 0 0 0 0 0 0 0 0 0 0 0 0.25 0"/>
<feBlend mode="normal" in2="BackgroundImageFix" result="effect1_dropShadow_1026_2347"/>
<feBlend mode="normal" in="SourceGraphic" in2="effect1_dropShadow_1026_2347" result="shape"/>
</filter>
<filter id="filter2_f_1026_2347" x="39.2295" y="8.54492" width="237.54" height="253.402" filterUnits="userSpaceOnUse" color-interpolation-filters="sRGB">
<feFlood flood-opacity="0" result="BackgroundImageFix"/>
<feBlend mode="normal" in="SourceGraphic" in2="BackgroundImageFix" result="shape"/>
<feGaussianBlur stdDeviation="12" result="effect1_foregroundBlur_1026_2347"/>
</filter>
<filter id="filter3_f_1026_2347" x="51.2295" y="20.5449" width="213.54" height="229.402" filterUnits="userSpaceOnUse" color-interpolation-filters="sRGB">
<feFlood flood-opacity="0" result="BackgroundImageFix"/>
<feBlend mode="normal" in="SourceGraphic" in2="BackgroundImageFix" result="shape"/>
<feGaussianBlur stdDeviation="6" result="effect1_foregroundBlur_1026_2347"/>
</filter>
<filter id="filter4_f_1026_2347" x="57.2295" y="26.5449" width="201.54" height="217.402" filterUnits="userSpaceOnUse" color-interpolation-filters="sRGB">
<feFlood flood-opacity="0" result="BackgroundImageFix"/>
<feBlend mode="normal" in="SourceGraphic" in2="BackgroundImageFix" result="shape"/>
<feGaussianBlur stdDeviation="3" result="effect1_foregroundBlur_1026_2347"/>
</filter>
<filter id="filter5_di_1026_2347" x="56.7031" y="31.6221" width="200.885" height="215.258" filterUnits="userSpaceOnUse" color-interpolation-filters="sRGB">
<feFlood flood-opacity="0" result="BackgroundImageFix"/>
<feColorMatrix in="SourceAlpha" type="matrix" values="0 0 0 0 0 0 0 0 0 0 0 0 0 0 0 0 0 0 127 0" result="hardAlpha"/>
<feOffset dy="4"/>
<feGaussianBlur stdDeviation="4"/>
<feComposite in2="hardAlpha" operator="out"/>
<feColorMatrix type="matrix" values="0 0 0 0 0 0 0 0 0 0 0 0 0 0 0 0 0 0 0.25 0"/>
<feBlend mode="normal" in2="BackgroundImageFix" result="effect1_dropShadow_1026_2347"/>
<feBlend mode="normal" in="SourceGraphic" in2="effect1_dropShadow_1026_2347" result="shape"/>
<feColorMatrix in="SourceAlpha" type="matrix" values="0 0 0 0 0 0 0 0 0 0 0 0 0 0 0 0 0 0 127 0" result="hardAlpha"/>
<feOffset/>
<feGaussianBlur stdDeviation="7.5"/>
<feComposite in2="hardAlpha" operator="arithmetic" k2="-1" k3="1"/>
<feColorMatrix type="matrix" values="0 0 0 0 1 0 0 0 0 0.723558 0 0 0 0 0.278846 0 0 0 0.25 0"/>
<feBlend mode="normal" in2="shape" result="effect2_innerShadow_1026_2347"/>
</filter>
<filter id="filter6_d_1026_2347" x="109.032" y="90.1826" width="96.1201" height="94.6963" filterUnits="userSpaceOnUse" color-interpolation-filters="sRGB">
<feFlood flood-opacity="0" result="BackgroundImageFix"/>
<feColorMatrix in="SourceAlpha" type="matrix" values="0 0 0 0 0 0 0 0 0 0 0 0 0 0 0 0 0 0 127 0" result="hardAlpha"/>
<feOffset/>
<feGaussianBlur stdDeviation="1"/>
<feComposite in2="hardAlpha" operator="out"/>
<feColorMatrix type="matrix" values="0 0 0 0 0 0 0 0 0 0 0 0 0 0 0 0 0 0 0.25 0"/>
<feBlend mode="normal" in2="BackgroundImageFix" result="effect1_dropShadow_1026_2347"/>
<feBlend mode="normal" in="SourceGraphic" in2="effect1_dropShadow_1026_2347" result="shape"/>
</filter>
<filter id="filter7_f_1026_2347" x="410.595" y="0" width="246.811" height="263.447" filterUnits="userSpaceOnUse" color-interpolation-filters="sRGB">
<feFlood flood-opacity="0" result="BackgroundImageFix"/>
<feBlend mode="normal" in="SourceGraphic" in2="BackgroundImageFix" result="shape"/>
<feGaussianBlur stdDeviation="12" result="effect1_foregroundBlur_1026_2347"/>
</filter>
<filter id="filter8_f_1026_2347" x="422.595" y="12" width="222.811" height="239.447" filterUnits="userSpaceOnUse" color-interpolation-filters="sRGB">
<feFlood flood-opacity="0" result="BackgroundImageFix"/>
<feBlend mode="normal" in="SourceGraphic" in2="BackgroundImageFix" result="shape"/>
<feGaussianBlur stdDeviation="6" result="effect1_foregroundBlur_1026_2347"/>
</filter>
<filter id="filter9_f_1026_2347" x="428.595" y="18" width="210.811" height="227.447" filterUnits="userSpaceOnUse" color-interpolation-filters="sRGB">
<feFlood flood-opacity="0" result="BackgroundImageFix"/>
<feBlend mode="normal" in="SourceGraphic" in2="BackgroundImageFix" result="shape"/>
<feGaussianBlur stdDeviation="3" result="effect1_foregroundBlur_1026_2347"/>
</filter>
<filter id="filter10_di_1026_2347" x="428.141" y="23.2021" width="209.927" height="225.056" filterUnits="userSpaceOnUse" color-interpolation-filters="sRGB">
<feFlood flood-opacity="0" result="BackgroundImageFix"/>
<feColorMatrix in="SourceAlpha" type="matrix" values="0 0 0 0 0 0 0 0 0 0 0 0 0 0 0 0 0 0 127 0" result="hardAlpha"/>
<feOffset dy="4"/>
<feGaussianBlur stdDeviation="4"/>
<feComposite in2="hardAlpha" operator="out"/>
<feColorMatrix type="matrix" values="0 0 0 0 0 0 0 0 0 0 0 0 0 0 0 0 0 0 0.25 0"/>
<feBlend mode="normal" in2="BackgroundImageFix" result="effect1_dropShadow_1026_2347"/>
<feBlend mode="normal" in="SourceGraphic" in2="effect1_dropShadow_1026_2347" result="shape"/>
<feColorMatrix in="SourceAlpha" type="matrix" values="0 0 0 0 0 0 0 0 0 0 0 0 0 0 0 0 0 0 127 0" result="hardAlpha"/>
<feOffset/>
<feGaussianBlur stdDeviation="7.5"/>
<feComposite in2="hardAlpha" operator="arithmetic" k2="-1" k3="1"/>
<feColorMatrix type="matrix" values="0 0 0 0 1 0 0 0 0 0.723558 0 0 0 0 0.278846 0 0 0 0.25 0"/>
<feBlend mode="normal" in2="shape" result="effect2_innerShadow_1026_2347"/>
</filter>
<linearGradient id="paint0_linear_1026_2347" x1="157.997" y1="301.664" x2="156.291" y2="136.93" gradientUnits="userSpaceOnUse">
<stop offset="0.258794" stop-color="#A80000"/>
<stop offset="0.515146" stop-color="#8C0000"/>
</linearGradient>
<linearGradient id="paint1_linear_1026_2347" x1="92.1172" y1="238.468" x2="157.105" y2="138.939" gradientUnits="userSpaceOnUse">
<stop stop-color="#A80000"/>
<stop offset="0.7" stop-color="#420000"/>
</linearGradient>
<linearGradient id="paint2_linear_1026_2347" x1="222.133" y1="239.508" x2="157.145" y2="137.899" gradientUnits="userSpaceOnUse">
<stop stop-color="#A80000"/>
<stop offset="0.7" stop-color="#420000"/>
</linearGradient>
<linearGradient id="paint3_linear_1026_2347" x1="48.5684" y1="32.5449" x2="267.431" y2="237.947" gradientUnits="userSpaceOnUse">
<stop stop-color="#FFD27A"/>
<stop offset="0.504808" stop-color="#F6A93B"/>
<stop offset="1" stop-color="#E8891A"/>
</linearGradient>
<linearGradient id="paint4_linear_1026_2347" x1="48.5684" y1="32.5449" x2="267.431" y2="237.947" gradientUnits="userSpaceOnUse">
<stop stop-color="#FFD27A"/>
<stop offset="0.504808" stop-color="#F6A93B"/>
<stop offset="1" stop-color="#E8891A"/>
</linearGradient>
<linearGradient id="paint5_linear_1026_2347" x1="48.5684" y1="32.5449" x2="267.431" y2="237.947" gradientUnits="userSpaceOnUse">
<stop stop-color="#FFD27A"/>
<stop offset="0.504808" stop-color="#F6A93B"/>
<stop offset="1" stop-color="#E8891A"/>
</linearGradient>
<linearGradient id="paint6_linear_1026_2347" x1="50.4023" y1="35.0723" x2="263.889" y2="235.428" gradientUnits="userSpaceOnUse">
<stop stop-color="#FFAE00"/>
<stop offset="0.5" stop-color="#FFC400"/>
<stop offset="1" stop-color="#F08100"/>
</linearGradient>
<linearGradient id="paint7_linear_1026_2347" x1="111.061" y1="60.1196" x2="249.725" y2="235.431" gradientUnits="userSpaceOnUse">
<stop offset="0.456731" stop-color="white" stop-opacity="0"/>
<stop offset="0.780221" stop-color="#FF5900" stop-opacity="0.5"/>
</linearGradient>
<linearGradient id="paint8_linear_1026_2347" x1="64.7031" y1="35.0723" x2="203.367" y2="210.384" gradientUnits="userSpaceOnUse">
<stop stop-color="white" stop-opacity="0.5"/>
<stop offset="0.6" stop-color="white" stop-opacity="0.05"/>
</linearGradient>
<linearGradient id="paint9_linear_1026_2347" x1="64.5674" y1="48.3623" x2="249.725" y2="222.132" gradientUnits="userSpaceOnUse">
<stop stop-color="#FFB200"/>
<stop offset="1" stop-color="#FFBA36"/>
</linearGradient>
<linearGradient id="paint10_linear_1026_2347" x1="244.945" y1="217.65" x2="69.3463" y2="52.851" gradientUnits="userSpaceOnUse">
<stop stop-color="#F67900"/>
<stop offset="1" stop-color="#CD6400"/>
</linearGradient>
<linearGradient id="paint11_linear_1026_2347" x1="157.104" y1="94.7617" x2="157.104" y2="179.094" gradientUnits="userSpaceOnUse">
<stop offset="0.5" stop-color="white"/>
<stop offset="1" stop-color="#FFE5B9"/>
</linearGradient>
<linearGradient id="paint12_linear_1026_2347" x1="50.4023" y1="35.0713" x2="263.889" y2="235.427" gradientUnits="userSpaceOnUse">
<stop stop-color="#FFD27A"/>
<stop offset="0.504808" stop-color="#F6A93B"/>
<stop offset="1" stop-color="#E8891A"/>
</linearGradient>
<linearGradient id="paint13_linear_1026_2347" x1="121.42" y1="0.958736" x2="121.272" y2="47.9202" gradientUnits="userSpaceOnUse">
<stop stop-color="white" stop-opacity="0"/>
<stop offset="0.302885" stop-color="white"/>
<stop offset="0.7" stop-color="white"/>
<stop offset="1" stop-color="white" stop-opacity="0"/>
</linearGradient>
<linearGradient id="paint14_linear_1026_2347" x1="121.42" y1="0.853501" x2="121.303" y2="42.6603" gradientUnits="userSpaceOnUse">
<stop stop-color="white" stop-opacity="0"/>
<stop offset="0.302885" stop-color="white"/>
<stop offset="0.7" stop-color="white"/>
<stop offset="1" stop-color="white" stop-opacity="0"/>
</linearGradient>
<linearGradient id="paint15_linear_1026_2347" x1="534.35" y1="267.028" x2="533.473" y2="124.137" gradientUnits="userSpaceOnUse">
<stop offset="0.258794" stop-color="#9200A8"/>
<stop offset="0.515146" stop-color="#60008C"/>
</linearGradient>
<linearGradient id="paint16_linear_1026_2347" x1="419.217" y1="24" x2="648.783" y2="239.448" gradientUnits="userSpaceOnUse">
<stop stop-color="#FF7ABA"/>
<stop offset="0.504808" stop-color="#F63BA2"/>
<stop offset="1" stop-color="#E81A6C"/>
</linearGradient>
<linearGradient id="paint17_linear_1026_2347" x1="419.217" y1="24" x2="648.783" y2="239.448" gradientUnits="userSpaceOnUse">
<stop stop-color="#FF7ABA"/>
<stop offset="0.504808" stop-color="#F63BA2"/>
<stop offset="1" stop-color="#E81A6C"/>
</linearGradient>
<linearGradient id="paint18_linear_1026_2347" x1="419.217" y1="24" x2="648.783" y2="239.448" gradientUnits="userSpaceOnUse">
<stop stop-color="#FF7ABA"/>
<stop offset="0.504808" stop-color="#F63BA2"/>
<stop offset="1" stop-color="#E81A6C"/>
</linearGradient>
<linearGradient id="paint19_linear_1026_2347" x1="421.141" y1="26.6523" x2="645.068" y2="236.807" gradientUnits="userSpaceOnUse">
<stop stop-color="#FF0048"/>
<stop offset="0.5" stop-color="#FF0084"/>
<stop offset="1" stop-color="#F00068"/>
</linearGradient>
<linearGradient id="paint20_linear_1026_2347" x1="484.766" y1="52.9219" x2="630.211" y2="236.808" gradientUnits="userSpaceOnUse">
<stop offset="0.456731" stop-color="white" stop-opacity="0"/>
<stop offset="0.780221" stop-color="#FF0066" stop-opacity="0.5"/>
</linearGradient>
<linearGradient id="paint21_linear_1026_2347" x1="436.142" y1="26.6523" x2="581.587" y2="210.538" gradientUnits="userSpaceOnUse">
<stop stop-color="white" stop-opacity="0.5"/>
<stop offset="0.6" stop-color="white" stop-opacity="0.05"/>
</linearGradient>
<linearGradient id="paint22_linear_1026_2347" x1="435.998" y1="40.5947" x2="630.211" y2="222.863" gradientUnits="userSpaceOnUse">
<stop stop-color="#FF0084"/>
<stop offset="1" stop-color="#FF3686"/>
</linearGradient>
<linearGradient id="paint23_linear_1026_2347" x1="625.198" y1="218.159" x2="441.012" y2="45.3008" gradientUnits="userSpaceOnUse">
<stop stop-color="#F6006B"/>
<stop offset="1" stop-color="#CD0059"/>
</linearGradient>
<linearGradient id="paint24_linear_1026_2347" x1="534.001" y1="98.0918" x2="534.001" y2="174.393" gradientUnits="userSpaceOnUse">
<stop offset="0.5" stop-color="white"/>
<stop offset="1" stop-color="#FF9DDB"/>
</linearGradient>
<linearGradient id="paint25_linear_1026_2347" x1="421.141" y1="26.6494" x2="645.068" y2="236.805" gradientUnits="userSpaceOnUse">
<stop stop-color="#FFD27A"/>
<stop offset="0.504808" stop-color="#F6A93B"/>
<stop offset="1" stop-color="#E8891A"/>
</linearGradient>
<linearGradient id="paint26_linear_1026_2347" x1="533.057" y1="188.665" x2="532.902" y2="237.923" gradientUnits="userSpaceOnUse">
<stop stop-color="white" stop-opacity="0"/>
<stop offset="0.302885" stop-color="white"/>
<stop offset="0.7" stop-color="white"/>
<stop offset="1" stop-color="white" stop-opacity="0"/>
</linearGradient>
<linearGradient id="paint27_linear_1026_2347" x1="606.11" y1="248.778" x2="605.987" y2="292.63" gradientUnits="userSpaceOnUse">
<stop stop-color="white" stop-opacity="0"/>
<stop offset="0.302885" stop-color="white"/>
<stop offset="0.7" stop-color="white"/>
<stop offset="1" stop-color="white" stop-opacity="0"/>
</linearGradient>
</defs>
</svg>
