<svg width="316" height="272" viewBox="0 0 316 272" fill="none" xmlns="http://www.w3.org/2000/svg">
<path d="M0 21.1035C0 14.4761 5.37258 9.10352 12 9.10352H304C310.627 9.10352 316 14.4761 316 21.1035V138.111C316 142.578 313.518 146.676 309.56 148.745L163.56 225.072C160.077 226.893 155.923 226.893 152.44 225.072L6.44046 148.745C2.48154 146.676 0 142.578 0 138.111V21.1035Z" fill="black"/>
<path d="M110.127 124.646L203.945 124.647C204.713 124.647 205.357 125.227 205.438 125.99L216.947 234.994C217.009 235.581 216.722 236.15 216.212 236.447L157.818 270.531C157.351 270.804 156.772 270.804 156.305 270.531L97.9932 236.446C97.4847 236.149 97.1968 235.582 97.2578 234.996L108.636 125.991C108.715 125.227 109.359 124.647 110.127 124.646Z" fill="url(#paint0_linear_1026_2368)" stroke="#A038C3"/>
<g filter="url(#filter0_f_1026_2368)" style="mix-blend-mode:lighten">
<path d="M158 24L257.405 77.8619V185.586L158 239.448L58.5948 185.586L58.5948 77.8619L158 24Z" fill="url(#paint1_linear_1026_2368)"/>
</g>
<g filter="url(#filter1_f_1026_2368)" style="mix-blend-mode:lighten">
<path d="M158 24L257.405 77.8619V185.586L158 239.448L58.5948 185.586L58.5948 77.8619L158 24Z" fill="url(#paint2_linear_1026_2368)"/>
</g>
<g filter="url(#filter2_f_1026_2368)" style="mix-blend-mode:lighten">
<path d="M158 24L257.405 77.8619V185.586L158 239.448L58.5948 185.586L58.5948 77.8619L158 24Z" fill="url(#paint3_linear_1026_2368)"/>
</g>
<g filter="url(#filter3_di_1026_2368)">
<path d="M155.199 27.6849C156.387 27.0408 157.821 27.0408 159.01 27.6849L251.973 78.0563C253.264 78.7556 254.068 80.1054 254.068 81.5732V181.887C254.068 183.354 253.264 184.704 251.973 185.404L159.01 235.775C157.821 236.419 156.387 236.419 155.199 235.775L62.2353 185.404C60.9448 184.704 60.1409 183.354 60.1409 181.887L60.1409 81.5732C60.1409 80.1054 60.9448 78.7556 62.2353 78.0563L155.199 27.6849Z" fill="url(#paint4_linear_1026_2368)"/>
</g>
<path d="M254.211 184.269V79.1913L205.729 52.9219L108.766 210.538L157.248 236.808L254.211 184.269Z" fill="url(#paint5_linear_1026_2368)"/>
<path d="M60.1416 79.1911V184.269L108.623 210.538L205.587 52.9217L157.105 26.6523L60.1416 79.1911Z" fill="url(#paint6_linear_1026_2368)"/>
<path d="M156.628 44.2646C156.925 44.1036 157.284 44.1036 157.581 44.2646L237.678 87.665C238 87.8399 238.201 88.1771 238.201 88.5439V174.914C238.201 175.281 238 175.618 237.678 175.793L157.581 219.193C157.284 219.354 156.925 219.354 156.628 219.193L76.5312 175.793C76.2088 175.618 76.0078 175.281 76.0078 174.914V88.5439C76.0078 88.1771 76.2088 87.8399 76.5312 87.665L156.628 44.2646Z" stroke="url(#paint7_linear_1026_2368)" stroke-width="6"/>
<path d="M156.629 48.9707C156.926 48.81 157.284 48.8099 157.581 48.9707L233.336 90.0186C233.659 90.1934 233.86 90.5305 233.86 90.8975V172.562C233.86 172.929 233.659 173.267 233.336 173.441L157.581 214.489C157.284 214.65 156.926 214.65 156.629 214.489L80.873 173.441C80.5507 173.267 80.3496 172.929 80.3496 172.562V90.8975C80.3496 90.5307 80.5507 90.1934 80.873 90.0186L156.629 48.9707Z" stroke="url(#paint8_linear_1026_2368)" stroke-width="6"/>
<path d="M179.498 99.4512C181.836 97.1394 185.599 97.1394 187.937 99.4512L207.965 119.26C210.339 121.608 210.339 125.444 207.965 127.792L162.22 173.033C159.882 175.345 156.119 175.345 153.781 173.033L108.037 127.792C105.663 125.444 105.663 121.608 108.037 119.26L128.064 99.4512C130.402 97.1393 134.165 97.1395 136.503 99.4512L156.595 119.321C157.374 120.092 158.628 120.092 159.407 119.321L179.498 99.4512Z" fill="url(#paint9_linear_1026_2368)" stroke="#D90560" stroke-width="4"/>
<mask id="mask0_1026_2368" style="mask-type:alpha" maskUnits="userSpaceOnUse" x="60" y="27" width="195" height="210">
<path d="M155.199 27.682C156.387 27.0378 157.821 27.0378 159.01 27.682L251.973 78.0534C253.264 78.7526 254.068 80.1025 254.068 81.5703V181.884C254.068 183.351 253.264 184.701 251.973 185.401L159.01 235.772C157.821 236.416 156.387 236.416 155.199 235.772L62.2353 185.401C60.9448 184.701 60.1409 183.351 60.1409 181.884V81.5703C60.1409 80.1025 60.9448 78.7526 62.2353 78.0534L155.199 27.682Z" fill="url(#paint10_linear_1026_2368)"/>
</mask>
<g mask="url(#mask0_1026_2368)">
<rect x="29.6982" y="187.659" width="262.178" height="54.9736" transform="rotate(-52.5325 29.6982 187.659)" fill="url(#paint11_linear_1026_2368)" fill-opacity="0.2"/>
<rect x="102.751" y="247.883" width="262.178" height="48.9394" transform="rotate(-54.7111 102.751 247.883)" fill="url(#paint12_linear_1026_2368)" fill-opacity="0.2"/>
</g>
<defs>
<filter id="filter0_f_1026_2368" x="34.5947" y="0" width="246.811" height="263.447" filterUnits="userSpaceOnUse" color-interpolation-filters="sRGB">
<feFlood flood-opacity="0" result="BackgroundImageFix"/>
<feBlend mode="normal" in="SourceGraphic" in2="BackgroundImageFix" result="shape"/>
<feGaussianBlur stdDeviation="12" result="effect1_foregroundBlur_1026_2368"/>
</filter>
<filter id="filter1_f_1026_2368" x="46.5947" y="12" width="222.811" height="239.447" filterUnits="userSpaceOnUse" color-interpolation-filters="sRGB">
<feFlood flood-opacity="0" result="BackgroundImageFix"/>
<feBlend mode="normal" in="SourceGraphic" in2="BackgroundImageFix" result="shape"/>
<feGaussianBlur stdDeviation="6" result="effect1_foregroundBlur_1026_2368"/>
</filter>
<filter id="filter2_f_1026_2368" x="52.5947" y="18" width="210.811" height="227.447" filterUnits="userSpaceOnUse" color-interpolation-filters="sRGB">
<feFlood flood-opacity="0" result="BackgroundImageFix"/>
<feBlend mode="normal" in="SourceGraphic" in2="BackgroundImageFix" result="shape"/>
<feGaussianBlur stdDeviation="3" result="effect1_foregroundBlur_1026_2368"/>
</filter>
<filter id="filter3_di_1026_2368" x="52.1406" y="23.2021" width="209.927" height="225.056" filterUnits="userSpaceOnUse" color-interpolation-filters="sRGB">
<feFlood flood-opacity="0" result="BackgroundImageFix"/>
<feColorMatrix in="SourceAlpha" type="matrix" values="0 0 0 0 0 0 0 0 0 0 0 0 0 0 0 0 0 0 127 0" result="hardAlpha"/>
<feOffset dy="4"/>
<feGaussianBlur stdDeviation="4"/>
<feComposite in2="hardAlpha" operator="out"/>
<feColorMatrix type="matrix" values="0 0 0 0 0 0 0 0 0 0 0 0 0 0 0 0 0 0 0.25 0"/>
<feBlend mode="normal" in2="BackgroundImageFix" result="effect1_dropShadow_1026_2368"/>
<feBlend mode="normal" in="SourceGraphic" in2="effect1_dropShadow_1026_2368" result="shape"/>
<feColorMatrix in="SourceAlpha" type="matrix" values="0 0 0 0 0 0 0 0 0 0 0 0 0 0 0 0 0 0 127 0" result="hardAlpha"/>
<feOffset/>
<feGaussianBlur stdDeviation="7.5"/>
<feComposite in2="hardAlpha" operator="arithmetic" k2="-1" k3="1"/>
<feColorMatrix type="matrix" values="0 0 0 0 1 0 0 0 0 0.723558 0 0 0 0 0.278846 0 0 0 0.25 0"/>
<feBlend mode="normal" in2="shape" result="effect2_innerShadow_1026_2368"/>
</filter>
<linearGradient id="paint0_linear_1026_2368" x1="158.35" y1="267.028" x2="157.473" y2="124.137" gradientUnits="userSpaceOnUse">
<stop offset="0.258794" stop-color="#9200A8"/>
<stop offset="0.515146" stop-color="#60008C"/>
</linearGradient>
<linearGradient id="paint1_linear_1026_2368" x1="43.2168" y1="24" x2="272.783" y2="239.448" gradientUnits="userSpaceOnUse">
<stop stop-color="#FF7ABA"/>
<stop offset="0.504808" stop-color="#F63BA2"/>
<stop offset="1" stop-color="#E81A6C"/>
</linearGradient>
<linearGradient id="paint2_linear_1026_2368" x1="43.2168" y1="24" x2="272.783" y2="239.448" gradientUnits="userSpaceOnUse">
<stop stop-color="#FF7ABA"/>
<stop offset="0.504808" stop-color="#F63BA2"/>
<stop offset="1" stop-color="#E81A6C"/>
</linearGradient>
<linearGradient id="paint3_linear_1026_2368" x1="43.2168" y1="24" x2="272.783" y2="239.448" gradientUnits="userSpaceOnUse">
<stop stop-color="#FF7ABA"/>
<stop offset="0.504808" stop-color="#F63BA2"/>
<stop offset="1" stop-color="#E81A6C"/>
</linearGradient>
<linearGradient id="paint4_linear_1026_2368" x1="45.1406" y1="26.6523" x2="269.068" y2="236.807" gradientUnits="userSpaceOnUse">
<stop stop-color="#FF0048"/>
<stop offset="0.5" stop-color="#FF0084"/>
<stop offset="1" stop-color="#F00068"/>
</linearGradient>
<linearGradient id="paint5_linear_1026_2368" x1="108.766" y1="52.9219" x2="254.211" y2="236.808" gradientUnits="userSpaceOnUse">
<stop offset="0.456731" stop-color="white" stop-opacity="0"/>
<stop offset="0.780221" stop-color="#FF0066" stop-opacity="0.5"/>
</linearGradient>
<linearGradient id="paint6_linear_1026_2368" x1="60.1416" y1="26.6523" x2="205.587" y2="210.538" gradientUnits="userSpaceOnUse">
<stop stop-color="white" stop-opacity="0.5"/>
<stop offset="0.6" stop-color="white" stop-opacity="0.05"/>
</linearGradient>
<linearGradient id="paint7_linear_1026_2368" x1="59.998" y1="40.5947" x2="254.211" y2="222.863" gradientUnits="userSpaceOnUse">
<stop stop-color="#FF0084"/>
<stop offset="1" stop-color="#FF3686"/>
</linearGradient>
<linearGradient id="paint8_linear_1026_2368" x1="249.198" y1="218.159" x2="65.0117" y2="45.3008" gradientUnits="userSpaceOnUse">
<stop stop-color="#F6006B"/>
<stop offset="1" stop-color="#CD0059"/>
</linearGradient>
<linearGradient id="paint9_linear_1026_2368" x1="158.001" y1="98.0918" x2="158.001" y2="174.393" gradientUnits="userSpaceOnUse">
<stop offset="0.5" stop-color="white"/>
<stop offset="1" stop-color="#FF9DDB"/>
</linearGradient>
<linearGradient id="paint10_linear_1026_2368" x1="45.1406" y1="26.6494" x2="269.068" y2="236.805" gradientUnits="userSpaceOnUse">
<stop stop-color="#FFD27A"/>
<stop offset="0.504808" stop-color="#F6A93B"/>
<stop offset="1" stop-color="#E8891A"/>
</linearGradient>
<linearGradient id="paint11_linear_1026_2368" x1="157.057" y1="188.665" x2="156.902" y2="237.923" gradientUnits="userSpaceOnUse">
<stop stop-color="white" stop-opacity="0"/>
<stop offset="0.302885" stop-color="white"/>
<stop offset="0.7" stop-color="white"/>
<stop offset="1" stop-color="white" stop-opacity="0"/>
</linearGradient>
<linearGradient id="paint12_linear_1026_2368" x1="230.11" y1="248.778" x2="229.987" y2="292.63" gradientUnits="userSpaceOnUse">
<stop stop-color="white" stop-opacity="0"/>
<stop offset="0.302885" stop-color="white"/>
<stop offset="0.7" stop-color="white"/>
<stop offset="1" stop-color="white" stop-opacity="0"/>
</linearGradient>
</defs>
</svg>
