<svg width="908" height="837" viewBox="0 0 908 837" fill="none" xmlns="http://www.w3.org/2000/svg">
<path d="M202.102 0L733.056 229.968L485.802 837.005L0 610.503L202.102 0Z" fill="white"/>
<path d="M497.372 19.3783L907.984 200.714L733.058 229.964L202.102 0L497.372 19.3783Z" fill="white"/>
<path d="M733.056 229.968L907.984 200.714L623.686 754.469L485.802 837.005L733.056 229.968Z" fill="#EBEBEB"/>
<path d="M731.113 230.761L485.007 834.979L1.84277 609.707L203.011 2.02734L731.113 230.761ZM622.547 753.402L488.886 833.41L734.129 231.309L905.286 202.686L622.547 753.402ZM497.009 20.8574L902.793 200.061L733.248 228.412L210.64 2.06348L497.009 20.8574Z" stroke="#EBEBEB" stroke-width="3"/>
</svg>
