<svg width="592" height="336" viewBox="0 0 592 336" fill="none" xmlns="http://www.w3.org/2000/svg">
<path d="M0.000480614 67.6645L372.118 230.949L568.764 -187.298L219.955 -328.987L0.000480614 67.6645Z" fill="#2E05E0"/>
<path d="M150.729 210.467L440.314 335.07L372.117 230.952L0.000480614 67.6645L150.729 210.467Z" fill="#2E05E0"/>
<path d="M372.118 230.949L440.314 335.07L591.707 -76.7253L568.764 -187.298L372.118 230.949Z" fill="#2500C4"/>
<path d="M566.733 -186.503L220.623 -327.097L2.11027 66.9527L371.382 228.989L566.733 -186.503ZM590.15 -76.8399L568.208 -182.59L373.832 230.829L439.934 331.755L590.15 -76.8399ZM371.106 232.147L7.28299 72.4986L151.568 209.196L436.327 331.723L371.106 232.147Z" stroke="#2500C4" stroke-width="3"/>
</svg>
