<svg width="160" height="169" viewBox="0 0 160 169" fill="none" xmlns="http://www.w3.org/2000/svg">
<path d="M53.583 80.4443L104.404 80.4453C105.172 80.4453 105.815 81.0241 105.896 81.7871L112.183 141.325C112.245 141.912 111.957 142.481 111.447 142.778L79.7637 161.271C79.2963 161.544 78.7182 161.545 78.251 161.271L46.6123 142.777C46.1038 142.48 45.8159 141.913 45.877 141.327L52.0918 81.7891C52.1715 81.0252 52.815 80.4445 53.583 80.4443Z" fill="url(#paint0_linear_1026_2441)" stroke="#A038C3"/>
<g filter="url(#filter0_f_1026_2441)" style="mix-blend-mode:lighten">
<path d="M79.5318 24L135.064 54.0899V114.27L79.5318 144.36L24 114.27L24 54.0899L79.5318 24Z" fill="url(#paint1_linear_1026_2441)"/>
</g>
<g filter="url(#filter1_f_1026_2441)" style="mix-blend-mode:lighten">
<path d="M79.5318 24L135.064 54.0899V114.27L79.5318 144.36L24 114.27L24 54.0899L79.5318 24Z" fill="url(#paint2_linear_1026_2441)"/>
</g>
<g filter="url(#filter2_f_1026_2441)" style="mix-blend-mode:lighten">
<path d="M79.5318 24L135.064 54.0899V114.27L79.5318 144.36L24 114.27L24 54.0899L79.5318 24Z" fill="url(#paint3_linear_1026_2441)"/>
</g>
<g filter="url(#filter3_di_1026_2441)">
<path d="M77.1252 26.514C78.314 25.8699 79.7477 25.8699 80.9365 26.514L131.104 53.6974C132.395 54.3966 133.199 55.7465 133.199 57.2143V111.152C133.199 112.619 132.395 113.969 131.104 114.669L80.9365 141.852C79.7477 142.496 78.314 142.496 77.1252 141.852L26.9575 114.669C25.667 113.969 24.8632 112.619 24.8632 111.152L24.8632 57.2143C24.8632 55.7465 25.667 54.3966 26.9575 53.6974L77.1252 26.514Z" fill="url(#paint4_linear_1026_2441)"/>
</g>
<path d="M133.278 113.534V54.8325L106.194 40.1571L52.0268 128.209L79.1107 142.885L133.278 113.534Z" fill="url(#paint5_linear_1026_2441)"/>
<path d="M24.8633 54.8322L24.8633 113.534L51.9471 128.209L106.115 40.1568L79.0309 25.4814L24.8633 54.8322Z" fill="url(#paint6_linear_1026_2441)"/>
<path d="M78.5547 36.9395C78.8517 36.7787 79.2098 36.7787 79.5068 36.9395L122.487 60.2285C122.81 60.4033 123.011 60.7406 123.011 61.1074V107.256C123.011 107.623 122.81 107.96 122.487 108.135L79.5068 131.424C79.2099 131.585 78.8517 131.585 78.5547 131.424L35.5742 108.135C35.2519 107.96 35.0509 107.623 35.0508 107.256V61.1074C35.0509 60.7407 35.2519 60.4034 35.5742 60.2285L78.5547 36.9395Z" stroke="url(#paint7_linear_1026_2441)" stroke-width="6"/>
<path d="M78.5547 39.5703C78.8518 39.4094 79.2107 39.4093 79.5078 39.5703L120.062 61.5449C120.384 61.7197 120.586 62.0571 120.586 62.4238V105.943C120.586 106.31 120.384 106.648 120.062 106.823L79.5078 128.798C79.2107 128.959 78.8518 128.959 78.5547 128.798L38 106.823C37.6774 106.648 37.4766 106.31 37.4766 105.943V62.4238C37.4767 62.0571 37.6776 61.7197 38 61.5449L78.5547 39.5703Z" stroke="url(#paint8_linear_1026_2441)" stroke-width="6"/>
<path d="M89.6787 66.749C92.0164 64.437 95.7795 64.437 98.1172 66.749L106.795 75.3311C109.169 77.6794 109.169 81.5149 106.795 83.8633L83.751 106.654C81.4133 108.966 77.6502 108.966 75.3125 106.654L52.2676 83.8633C49.8934 81.5149 49.8933 77.6794 52.2676 75.3311L60.9463 66.749C63.284 64.437 67.0471 64.437 69.3848 66.749L78.125 75.3936C78.9041 76.1641 80.1583 76.1639 80.9375 75.3936L89.6787 66.749Z" fill="url(#paint9_linear_1026_2441)" stroke="#D90560" stroke-width="4"/>
<mask id="mask0_1026_2441" style="mask-type:alpha" maskUnits="userSpaceOnUse" x="24" y="26" width="110" height="117">
<path d="M77.1252 26.514C78.314 25.8699 79.7477 25.8699 80.9365 26.514L131.104 53.6974C132.395 54.3966 133.199 55.7465 133.199 57.2143V111.152C133.199 112.619 132.395 113.969 131.104 114.669L80.9365 141.852C79.7477 142.496 78.314 142.496 77.1252 141.852L26.9575 114.669C25.667 113.969 24.8632 112.619 24.8632 111.152V57.2143C24.8632 55.7465 25.667 54.3966 26.9575 53.6974L77.1252 26.514Z" fill="url(#paint10_linear_1026_2441)"/>
</mask>
<g mask="url(#mask0_1026_2441)">
<rect width="146.465" height="30.7106" transform="matrix(0.608305 -0.793703 0.793694 0.608317 7.85645 115.428)" fill="url(#paint11_linear_1026_2441)" fill-opacity="0.2"/>
<rect width="146.465" height="27.3397" transform="matrix(0.577694 -0.816254 0.816245 0.577705 48.667 149.071)" fill="url(#paint12_linear_1026_2441)" fill-opacity="0.2"/>
</g>
<defs>
<filter id="filter0_f_1026_2441" x="0" y="0" width="159.063" height="168.359" filterUnits="userSpaceOnUse" color-interpolation-filters="sRGB">
<feFlood flood-opacity="0" result="BackgroundImageFix"/>
<feBlend mode="normal" in="SourceGraphic" in2="BackgroundImageFix" result="shape"/>
<feGaussianBlur stdDeviation="12" result="effect1_foregroundBlur_1026_2441"/>
</filter>
<filter id="filter1_f_1026_2441" x="12" y="12" width="135.063" height="144.359" filterUnits="userSpaceOnUse" color-interpolation-filters="sRGB">
<feFlood flood-opacity="0" result="BackgroundImageFix"/>
<feBlend mode="normal" in="SourceGraphic" in2="BackgroundImageFix" result="shape"/>
<feGaussianBlur stdDeviation="6" result="effect1_foregroundBlur_1026_2441"/>
</filter>
<filter id="filter2_f_1026_2441" x="18" y="18" width="123.063" height="132.359" filterUnits="userSpaceOnUse" color-interpolation-filters="sRGB">
<feFlood flood-opacity="0" result="BackgroundImageFix"/>
<feBlend mode="normal" in="SourceGraphic" in2="BackgroundImageFix" result="shape"/>
<feGaussianBlur stdDeviation="3" result="effect1_foregroundBlur_1026_2441"/>
</filter>
<filter id="filter3_di_1026_2441" x="16.8633" y="22.0312" width="124.335" height="132.304" filterUnits="userSpaceOnUse" color-interpolation-filters="sRGB">
<feFlood flood-opacity="0" result="BackgroundImageFix"/>
<feColorMatrix in="SourceAlpha" type="matrix" values="0 0 0 0 0 0 0 0 0 0 0 0 0 0 0 0 0 0 127 0" result="hardAlpha"/>
<feOffset dy="4"/>
<feGaussianBlur stdDeviation="4"/>
<feComposite in2="hardAlpha" operator="out"/>
<feColorMatrix type="matrix" values="0 0 0 0 0 0 0 0 0 0 0 0 0 0 0 0 0 0 0.25 0"/>
<feBlend mode="normal" in2="BackgroundImageFix" result="effect1_dropShadow_1026_2441"/>
<feBlend mode="normal" in="SourceGraphic" in2="effect1_dropShadow_1026_2441" result="shape"/>
<feColorMatrix in="SourceAlpha" type="matrix" values="0 0 0 0 0 0 0 0 0 0 0 0 0 0 0 0 0 0 127 0" result="hardAlpha"/>
<feOffset/>
<feGaussianBlur stdDeviation="7.5"/>
<feComposite in2="hardAlpha" operator="arithmetic" k2="-1" k3="1"/>
<feColorMatrix type="matrix" values="0 0 0 0 1 0 0 0 0 0.723558 0 0 0 0 0.278846 0 0 0 0.25 0"/>
<feBlend mode="normal" in2="shape" result="effect2_innerShadow_1026_2441"/>
</filter>
<linearGradient id="paint0_linear_1026_2441" x1="79.7273" y1="159.765" x2="79.2369" y2="79.9388" gradientUnits="userSpaceOnUse">
<stop offset="0.258794" stop-color="#9200A8"/>
<stop offset="0.515146" stop-color="#60008C"/>
</linearGradient>
<linearGradient id="paint1_linear_1026_2441" x1="15.4092" y1="24" x2="143.656" y2="144.358" gradientUnits="userSpaceOnUse">
<stop stop-color="#FF7ABA"/>
<stop offset="0.504808" stop-color="#F63BA2"/>
<stop offset="1" stop-color="#E81A6C"/>
</linearGradient>
<linearGradient id="paint2_linear_1026_2441" x1="15.4092" y1="24" x2="143.656" y2="144.358" gradientUnits="userSpaceOnUse">
<stop stop-color="#FF7ABA"/>
<stop offset="0.504808" stop-color="#F63BA2"/>
<stop offset="1" stop-color="#E81A6C"/>
</linearGradient>
<linearGradient id="paint3_linear_1026_2441" x1="15.4092" y1="24" x2="143.656" y2="144.358" gradientUnits="userSpaceOnUse">
<stop stop-color="#FF7ABA"/>
<stop offset="0.504808" stop-color="#F63BA2"/>
<stop offset="1" stop-color="#E81A6C"/>
</linearGradient>
<linearGradient id="paint4_linear_1026_2441" x1="16.4834" y1="25.4814" x2="141.58" y2="142.883" gradientUnits="userSpaceOnUse">
<stop stop-color="#FF0048"/>
<stop offset="0.5" stop-color="#FF0084"/>
<stop offset="1" stop-color="#F00068"/>
</linearGradient>
<linearGradient id="paint5_linear_1026_2441" x1="52.0268" y1="40.1571" x2="133.28" y2="142.884" gradientUnits="userSpaceOnUse">
<stop offset="0.456731" stop-color="white" stop-opacity="0"/>
<stop offset="0.780221" stop-color="#FF0066" stop-opacity="0.5"/>
</linearGradient>
<linearGradient id="paint6_linear_1026_2441" x1="24.8633" y1="25.4814" x2="106.116" y2="128.208" gradientUnits="userSpaceOnUse">
<stop stop-color="white" stop-opacity="0.5"/>
<stop offset="0.6" stop-color="white" stop-opacity="0.05"/>
</linearGradient>
<linearGradient id="paint7_linear_1026_2441" x1="24.7832" y1="33.2695" x2="133.28" y2="135.092" gradientUnits="userSpaceOnUse">
<stop stop-color="#FF0084"/>
<stop offset="1" stop-color="#FF3686"/>
</linearGradient>
<linearGradient id="paint8_linear_1026_2441" x1="130.478" y1="132.468" x2="27.5825" y2="35.902" gradientUnits="userSpaceOnUse">
<stop stop-color="#F6006B"/>
<stop offset="1" stop-color="#CD0059"/>
</linearGradient>
<linearGradient id="paint9_linear_1026_2441" x1="79.5315" y1="65.3887" x2="79.5315" y2="108.014" gradientUnits="userSpaceOnUse">
<stop offset="0.5" stop-color="white"/>
<stop offset="1" stop-color="#FF9DDB"/>
</linearGradient>
<linearGradient id="paint10_linear_1026_2441" x1="16.4834" y1="25.4814" x2="141.58" y2="142.883" gradientUnits="userSpaceOnUse">
<stop stop-color="#FFD27A"/>
<stop offset="0.504808" stop-color="#F6A93B"/>
<stop offset="1" stop-color="#E8891A"/>
</linearGradient>
<linearGradient id="paint11_linear_1026_2441" x1="71.1484" y1="0.561787" x2="71.0617" y2="28.0796" gradientUnits="userSpaceOnUse">
<stop stop-color="white" stop-opacity="0"/>
<stop offset="0.302885" stop-color="white"/>
<stop offset="0.7" stop-color="white"/>
<stop offset="1" stop-color="white" stop-opacity="0"/>
</linearGradient>
<linearGradient id="paint12_linear_1026_2441" x1="71.1484" y1="0.500122" x2="71.0797" y2="24.9975" gradientUnits="userSpaceOnUse">
<stop stop-color="white" stop-opacity="0"/>
<stop offset="0.302885" stop-color="white"/>
<stop offset="0.7" stop-color="white"/>
<stop offset="1" stop-color="white" stop-opacity="0"/>
</linearGradient>
</defs>
</svg>
