<svg width="497" height="138" viewBox="0 0 497 138" fill="none" xmlns="http://www.w3.org/2000/svg">
<g filter="url(#filter0_d_1026_2475)">
<path d="M406.344 63.2201C406.344 64.4309 407.325 65.4125 408.536 65.4125H417.738C418.949 65.4125 419.931 64.4309 419.931 63.2201V39.1238C419.931 37.0486 422.546 36.1348 423.838 37.7586L445.189 64.5853C445.605 65.108 446.236 65.4125 446.904 65.4125H456.334C458.155 65.4125 459.182 63.32 458.068 61.879L420.589 13.4084C420.174 12.8715 419.533 12.5571 418.854 12.5571H408.536C407.325 12.5571 406.344 13.5387 406.344 14.7495V63.2201Z" fill="white"/>
<path d="M175.79 14.7495C175.79 13.5387 176.772 12.5571 177.983 12.5571H187.185C188.396 12.5571 189.377 13.5387 189.377 14.7495V38.8458C189.377 40.9209 191.993 41.8347 193.285 40.211L214.635 13.3842C215.051 12.8616 215.683 12.5571 216.351 12.5571H225.78C227.602 12.5571 228.629 14.6496 227.515 16.0906L190.035 64.5612C189.62 65.0981 188.98 65.4125 188.301 65.4125H177.983C176.772 65.4125 175.79 64.4309 175.79 63.2201V14.7495Z" fill="white"/>
<path d="M234.947 14.2065C234.947 12.9956 235.928 12.0141 237.139 12.0141H245.868C247.078 12.0141 248.06 12.9956 248.06 14.2065V62.6771C248.06 63.8879 247.078 64.8695 245.868 64.8695H237.139C235.928 64.8695 234.947 63.8879 234.947 62.6771V14.2065Z" fill="white"/>
<path d="M483.867 14.2065C483.867 12.9956 484.849 12.0141 486.06 12.0141H494.788C495.999 12.0141 496.98 12.9956 496.98 14.2065V62.6771C496.98 63.8879 495.999 64.8695 494.788 64.8695H467.309C466.099 64.8695 465.117 63.8879 465.117 62.6771V54.0432C465.117 52.8323 466.099 51.8508 467.309 51.8508H481.675C482.886 51.8508 483.867 50.8692 483.867 49.6584V14.2065Z" fill="white"/>
<path d="M283.873 12.0329C283.873 12.0431 283.881 12.0516 283.891 12.0523C291.647 12.5957 297.767 18.9845 297.767 26.7875C297.767 32.9111 293.998 38.1636 288.627 40.4039C287.23 40.9865 286.461 42.6656 287.224 43.9728L297.494 61.5721C298.347 63.0337 297.293 64.8695 295.6 64.8695H289.195C288.416 64.8695 287.696 64.4567 287.303 63.785L270.717 35.4628C269.895 34.3445 270.795 32.9065 272.183 32.9065H282.907C282.94 32.9065 282.967 32.8798 282.967 32.8469C282.967 32.8146 282.993 32.7882 283.025 32.7872C286.433 32.6803 288.998 29.9433 288.998 26.7875C288.998 23.909 286.864 21.3782 283.903 20.8747C283.887 20.8721 283.873 20.8839 283.873 20.8993C283.873 20.9132 283.862 20.9244 283.848 20.9244H270.062C268.851 20.9244 267.869 21.9059 267.869 23.1168V62.676C267.869 63.8868 266.888 64.8684 265.677 64.8684H258.582C257.371 64.8684 256.389 63.8868 256.389 62.676V14.2059C256.389 12.9951 257.371 12.0135 258.582 12.0135H283.854C283.865 12.0135 283.873 12.0222 283.873 12.0329Z" fill="white"/>
<path d="M361.406 12.0131C362.617 12.0131 363.598 12.9947 363.598 14.2055V49.4184C363.598 49.4303 363.608 49.4399 363.62 49.4399C363.631 49.4399 363.64 49.4482 363.641 49.459C364.13 53.5686 369.11 56.7986 375.186 56.7986C381.262 56.7983 386.241 53.5688 386.73 49.4595C386.732 49.4484 386.741 49.4399 386.752 49.4399C386.765 49.4399 386.775 49.4301 386.775 49.4179V14.2055C386.775 12.9947 387.756 12.0131 388.967 12.0131H394.33C395.541 12.0131 396.523 12.9947 396.523 14.2055V52.4047C396.523 52.4328 396.5 52.4555 396.472 52.4555C396.446 52.4555 396.425 52.4745 396.421 52.4997C395.38 60.0512 386.289 65.9554 375.225 65.9556C364.161 65.9556 355.068 60.0511 354.027 52.4992C354.024 52.4743 354.003 52.4555 353.978 52.4555C353.95 52.4555 353.927 52.4331 353.927 52.4053V22.1904C353.927 20.9796 352.946 19.998 351.735 19.998H334.149C332.938 19.998 331.956 20.9796 331.956 22.1904V62.6767C331.956 63.8875 330.975 64.8691 329.764 64.8691H321.036C319.825 64.8691 318.844 63.8875 318.844 62.6767V22.1904C318.844 20.9796 317.862 19.998 316.651 19.998H303.431C302.22 19.998 301.238 19.0164 301.238 17.8056V14.2055C301.238 12.9947 302.22 12.0131 303.431 12.0131H361.406Z" fill="white"/>
<path d="M464.743 115.322C464.743 115.927 465.234 116.418 465.839 116.418H472.946C473.552 116.418 474.042 115.927 474.042 115.322V96.6176C474.042 95.5243 475.467 95.1047 476.06 96.0236L488.886 115.916C489.088 116.229 489.435 116.418 489.808 116.418H495.884C496.49 116.418 496.98 115.927 496.98 115.322V75.9869C496.98 75.3815 496.49 74.8907 495.884 74.8907H490.306C489.701 74.8907 489.21 75.3815 489.21 75.9869V96.0419C489.21 97.1517 487.75 97.5588 487.176 96.6091L474.362 75.4196C474.164 75.0913 473.808 74.8907 473.424 74.8907H465.839C465.234 74.8907 464.743 75.3815 464.743 75.9869V115.322Z" fill="white"/>
<path d="M294.964 78.1719C294.964 76.9611 295.946 75.9795 297.157 75.9795H302.924C304.135 75.9795 305.117 76.9611 305.117 78.1719V114.225C305.117 115.436 304.135 116.418 302.924 116.418H297.157C295.946 116.418 294.964 115.436 294.964 114.225V78.1719Z" fill="white"/>
<path d="M218.44 75.9795C219.12 75.9795 219.762 76.2957 220.177 76.8348L230.005 89.6038L239.834 76.8348C240.249 76.2957 240.891 75.9795 241.571 75.9795H246.19C248.01 75.9795 249.037 78.0673 247.928 79.5089L235.081 96.198L247.928 112.888C249.037 114.33 248.01 116.418 246.19 116.418H241.571C240.891 116.418 240.249 116.101 239.834 115.562L230.005 102.792L220.177 115.562C219.762 116.102 219.12 116.418 218.44 116.418H213.822C212.002 116.418 210.975 114.33 212.084 112.888L224.929 96.198L212.084 79.5089C210.975 78.0674 212.002 75.9799 213.821 75.9795H218.44Z" fill="white"/>
<path d="M347.172 78.1719C347.172 76.9611 348.154 75.9795 349.365 75.9795H355.132C356.343 75.9795 357.325 76.9611 357.325 78.1719V114.225C357.325 115.436 356.343 116.418 355.132 116.418H349.365C348.154 116.418 347.172 115.436 347.172 114.225V78.1719Z" fill="white"/>
<path d="M400.204 78.1719C400.204 76.9611 401.186 75.9795 402.397 75.9795H408.164C409.375 75.9795 410.357 76.9611 410.357 78.1719V114.225C410.357 115.436 409.375 116.418 408.164 116.418H402.397C401.186 116.418 400.204 115.436 400.204 114.225V78.1719Z" fill="white"/>
<path d="M204.471 81.3952C204.471 82.606 203.489 83.5876 202.278 83.5876H185.855C184.645 83.5876 183.663 84.5691 183.663 85.78V88.0051C183.663 89.2159 184.645 90.1975 185.855 90.1975H202.278C203.489 90.1975 204.471 91.179 204.471 92.3899V95.6136C204.471 96.8244 203.489 97.8059 202.278 97.8059H185.855C184.645 97.8059 183.663 98.7875 183.663 99.9983V106.617C183.663 107.828 184.645 108.81 185.855 108.81H202.278C203.489 108.81 204.471 109.791 204.471 111.002V114.226C204.471 115.437 203.489 116.418 202.278 116.418H177.982C176.771 116.418 175.789 115.437 175.789 114.226V78.1715C175.789 76.9607 176.771 75.9791 177.982 75.9791H202.278C203.489 75.9791 204.471 76.9607 204.471 78.1715V81.3952Z" fill="white"/>
<path d="M262.991 88.0051C262.991 89.2159 263.972 90.1975 265.183 90.1975H276.256C277.467 90.1975 278.448 89.2159 278.448 88.0051V78.1715C278.448 76.9607 279.43 75.9791 280.641 75.9791H286.408C287.619 75.9791 288.601 76.9607 288.601 78.1715V114.226C288.601 115.437 287.619 116.418 286.408 116.418H280.641C279.43 116.418 278.448 115.437 278.448 114.226V99.9983C278.448 98.7875 277.467 97.8059 276.256 97.8059H265.183C263.972 97.8059 262.991 98.7875 262.991 99.9983V114.226C262.991 115.437 262.009 116.418 260.798 116.418H255.76C254.549 116.418 253.567 115.437 253.567 114.226V78.1715C253.567 76.9607 254.549 75.9791 255.76 75.9791H260.798C262.009 75.9791 262.991 76.9607 262.991 78.1715V88.0051Z" fill="white"/>
<path d="M396.375 78.9714C396.375 80.1822 395.393 81.1637 394.182 81.1637H385.966C384.755 81.1637 383.773 82.1453 383.773 83.3561V114.226C383.773 115.437 382.792 116.418 381.581 116.418H375.989C374.778 116.418 373.796 115.437 373.796 114.226V83.3561C373.796 82.1453 372.815 81.1637 371.604 81.1637H363.346C362.135 81.1637 361.154 80.1822 361.154 78.9714V77.0831C361.154 75.8722 362.135 74.8907 363.346 74.8907H394.182C395.393 74.8907 396.375 75.8722 396.375 77.0831V78.9714Z" fill="white"/>
<path fill-rule="evenodd" clip-rule="evenodd" d="M436.379 74.8905C447.846 74.8905 457.143 84.1866 457.143 95.654C457.143 107.121 447.846 116.418 436.379 116.418C424.911 116.418 415.615 107.121 415.615 95.654C415.616 84.1867 424.912 74.8907 436.379 74.8905ZM436.379 83.3614C429.59 83.3615 424.086 88.865 424.086 95.654C424.086 102.443 429.59 107.947 436.379 107.948C443.168 107.948 448.672 102.443 448.672 95.654C448.672 88.8649 443.168 83.3614 436.379 83.3614Z" fill="white"/>
<path fill-rule="evenodd" clip-rule="evenodd" d="M325.13 75.9795C325.411 75.9795 325.678 76.0345 325.925 76.1304C331.103 76.9904 335.052 81.4874 335.052 86.9093C335.052 89.0965 334.406 91.1322 333.299 92.8409C338.213 94.3645 341.781 98.9454 341.781 104.36C341.781 111.019 336.383 116.417 329.724 116.418C329.628 116.418 329.532 116.412 329.436 116.41C329.386 116.414 329.336 116.419 329.285 116.419H312.701C312.474 116.419 312.255 116.384 312.049 116.32C311.706 116.213 311.399 116.024 311.151 115.776C311.052 115.677 310.962 115.569 310.883 115.452C310.765 115.277 310.671 115.084 310.607 114.878C310.543 114.672 310.508 114.453 310.508 114.226V78.1719C310.508 76.9612 311.49 75.9797 312.701 75.9795H325.13ZM319.458 99.0327C319.158 99.0327 318.916 99.2751 318.916 99.5744V109.687H327.685C330.627 109.687 333.012 107.302 333.012 104.36C333.012 101.417 330.627 99.0327 327.685 99.0327H319.458ZM319.296 82.7558C319.091 82.7558 318.925 82.922 318.925 83.1272V91.9342H323.998C326.532 91.9342 328.587 89.8795 328.587 87.345C328.587 84.8104 326.532 82.7558 323.998 82.7558H319.296Z" fill="white"/>
<path d="M34.603 0.156142C35.8138 0.156147 36.7953 1.13771 36.7953 2.34853V74.1548C36.7953 76.2117 39.3726 77.1363 40.6802 75.5484L102.104 0.954906C102.52 0.44915 103.141 0.156149 103.796 0.156147L132.783 0.156062C134.606 0.156057 135.633 2.25115 134.516 3.69173L37.4536 128.89C37.0384 129.425 36.3987 129.739 35.721 129.739H10.1924C8.98156 129.739 8 128.757 8 127.547V2.34844C8 1.13762 8.98157 0.156052 10.1924 0.156057L34.603 0.156142Z" fill="white"/>
<path d="M84.7676 84.0513C84.4615 83.3159 84.5783 82.4724 85.0726 81.8479L103.622 58.4156C104.655 57.1102 106.709 57.3876 107.359 58.9203L135.964 126.365C136.577 127.81 135.516 129.413 133.946 129.413H105.113C104.228 129.413 103.429 128.881 103.089 128.063L84.7676 84.0513Z" fill="white"/>
<path d="M80.7514 13.2879C81.0726 14.0572 80.9296 14.942 80.3826 15.5711L62.3792 36.2737C61.3062 37.5077 59.3087 37.1749 58.6935 35.6598L45.4406 3.01711C44.8553 1.57552 45.9161 0 47.472 0H73.7441C74.6286 0 75.4265 0.531553 75.7672 1.34783L80.7514 13.2879Z" fill="white"/>
</g>
<defs>
<filter id="filter0_d_1026_2475" x="0" y="0" width="496.98" height="137.739" filterUnits="userSpaceOnUse" color-interpolation-filters="sRGB">
<feFlood flood-opacity="0" result="BackgroundImageFix"/>
<feColorMatrix in="SourceAlpha" type="matrix" values="0 0 0 0 0 0 0 0 0 0 0 0 0 0 0 0 0 0 127 0" result="hardAlpha"/>
<feOffset dx="-4" dy="4"/>
<feGaussianBlur stdDeviation="2"/>
<feComposite in2="hardAlpha" operator="out"/>
<feColorMatrix type="matrix" values="0 0 0 0 0 0 0 0 0 0 0 0 0 0 0 0 0 0 0.25 0"/>
<feBlend mode="normal" in2="BackgroundImageFix" result="effect1_dropShadow_1026_2475"/>
<feBlend mode="normal" in="SourceGraphic" in2="effect1_dropShadow_1026_2475" result="shape"/>
</filter>
</defs>
</svg>
