<svg width="447" height="119" viewBox="0 0 447 119" fill="none" xmlns="http://www.w3.org/2000/svg">
<path d="M363.389 57.6725C363.389 58.7771 364.284 59.6725 365.389 59.6725H373.783C374.888 59.6725 375.783 58.7771 375.783 57.6725V35.6907C375.783 33.7976 378.169 32.964 379.348 34.4452L398.825 58.9179C399.205 59.3947 399.781 59.6725 400.39 59.6725H408.992C410.654 59.6725 411.591 57.7636 410.574 56.4491L376.384 12.2318C376.005 11.742 375.421 11.4552 374.802 11.4552H365.389C364.284 11.4552 363.389 12.3506 363.389 13.4552V57.6725Z" fill="url(#paint0_linear_796_584)"/>
<path d="M153.067 13.4552C153.067 12.3506 153.962 11.4552 155.067 11.4552H163.461C164.566 11.4552 165.461 12.3506 165.461 13.4552V35.437C165.461 37.3301 167.847 38.1637 169.026 36.6825L188.503 12.2098C188.882 11.733 189.459 11.4552 190.068 11.4552H198.67C200.332 11.4552 201.268 13.3641 200.252 14.6786L166.062 58.8959C165.683 59.3857 165.099 59.6725 164.479 59.6725H155.067C153.962 59.6725 153.067 58.7771 153.067 57.6725V13.4552Z" fill="url(#paint1_linear_796_584)"/>
<path d="M207.032 12.9598C207.032 11.8553 207.927 10.9598 209.032 10.9598H216.995C218.099 10.9598 218.995 11.8553 218.995 12.9598V57.1771C218.995 58.2817 218.099 59.1771 216.995 59.1771H209.032C207.927 59.1771 207.032 58.2817 207.032 57.1771V12.9598Z" fill="url(#paint2_linear_796_584)"/>
<path d="M434.109 12.9598C434.109 11.8553 435.005 10.9598 436.109 10.9598H444.072C445.177 10.9598 446.072 11.8553 446.072 12.9598V57.1771C446.072 58.2817 445.177 59.1771 444.072 59.1771H419.005C417.9 59.1771 417.005 58.2817 417.005 57.1771V49.3008C417.005 48.1963 417.9 47.3008 419.005 47.3008H432.109C433.214 47.3008 434.109 46.4054 434.109 45.3008V12.9598Z" fill="url(#paint3_linear_796_584)"/>
<path d="M251.665 10.977C251.665 10.9863 251.673 10.994 251.682 10.9947C258.757 11.4904 264.34 17.3186 264.34 24.4369C264.34 30.0231 260.901 34.8147 256.002 36.8584C254.728 37.3899 254.026 38.9216 254.722 40.1141L264.091 56.1691C264.869 57.5024 263.907 59.1771 262.363 59.1771H256.52C255.81 59.1771 255.153 58.8006 254.794 58.1878L239.663 32.351C238.913 31.3308 239.734 30.0189 241.001 30.0189H250.784C250.814 30.0189 250.838 29.9946 250.838 29.9646C250.838 29.9351 250.862 29.911 250.892 29.9101C254 29.8126 256.34 27.3158 256.34 24.4369C256.34 21.8109 254.393 19.5023 251.692 19.0429C251.678 19.0406 251.665 19.0513 251.665 19.0654C251.665 19.078 251.655 19.0883 251.642 19.0883H239.066C237.961 19.0883 237.066 19.9837 237.066 21.0883V57.1761C237.066 58.2807 236.17 59.1761 235.066 59.1761H228.593C227.488 59.1761 226.593 58.2807 226.593 57.1761V12.9594C226.593 11.8548 227.488 10.9594 228.593 10.9594H251.648C251.657 10.9594 251.665 10.9673 251.665 10.977Z" fill="url(#paint4_linear_796_584)"/>
<path d="M322.394 10.959C323.499 10.959 324.394 11.8544 324.394 12.959V45.0819C324.394 45.0928 324.403 45.1016 324.414 45.1016C324.424 45.1016 324.432 45.1091 324.433 45.119C324.879 48.868 329.423 51.8145 334.966 51.8145C340.508 51.8142 345.05 48.8681 345.497 45.1194C345.498 45.1093 345.506 45.1016 345.517 45.1016C345.528 45.1016 345.537 45.0925 345.537 45.0814V12.959C345.537 11.8544 346.432 10.959 347.537 10.959H352.429C353.534 10.959 354.429 11.8544 354.429 12.959V47.8062C354.429 47.8318 354.409 47.8525 354.383 47.8525C354.36 47.8525 354.34 47.8698 354.337 47.8928C353.387 54.7817 345.093 60.1678 335.001 60.168C324.907 60.168 316.613 54.7815 315.663 47.8924C315.66 47.8696 315.641 47.8525 315.618 47.8525C315.593 47.8525 315.572 47.832 315.572 47.8067V20.2432C315.572 19.1386 314.677 18.2432 313.572 18.2432H297.529C296.424 18.2432 295.529 19.1386 295.529 20.2432V57.1768C295.529 58.2813 294.634 59.1768 293.529 59.1768H285.567C284.463 59.1768 283.567 58.2813 283.567 57.1768V20.2432C283.567 19.1386 282.672 18.2432 281.567 18.2432H269.507C268.402 18.2432 267.507 17.3477 267.507 16.2432V12.959C267.507 11.8544 268.402 10.959 269.507 10.959H322.394Z" fill="url(#paint5_linear_796_584)"/>
<path d="M416.664 105.202C416.664 105.755 417.111 106.202 417.664 106.202H424.147C424.699 106.202 425.147 105.755 425.147 105.202V88.1393C425.147 87.142 426.447 86.7592 426.987 87.5974L438.688 105.744C438.872 106.03 439.189 106.202 439.529 106.202H445.072C445.624 106.202 446.072 105.755 446.072 105.202V69.319C446.072 68.7667 445.624 68.319 445.072 68.319H439.984C439.431 68.319 438.984 68.7667 438.984 69.319V87.6142C438.984 88.6266 437.652 88.9979 437.128 88.1316L425.439 68.8015C425.258 68.502 424.933 68.319 424.583 68.319H417.664C417.111 68.319 416.664 68.7667 416.664 69.319V105.202Z" fill="url(#paint6_linear_796_584)"/>
<path d="M261.783 71.3123C261.783 70.2077 262.678 69.3123 263.783 69.3123H269.044C270.149 69.3123 271.044 70.2077 271.044 71.3123V104.202C271.044 105.307 270.149 106.202 269.044 106.202H263.783C262.678 106.202 261.783 105.307 261.783 104.202V71.3123Z" fill="url(#paint7_linear_796_584)"/>
<path d="M191.974 69.3123C192.594 69.3123 193.18 69.6007 193.559 70.0925L202.524 81.741L211.49 70.0925C211.869 69.6007 212.454 69.3123 213.075 69.3123H217.289C218.949 69.3123 219.886 71.2168 218.874 72.532L207.154 87.7566L218.874 102.982C219.886 104.297 218.949 106.202 217.289 106.202H213.075C212.454 106.202 211.869 105.914 211.49 105.422L202.524 93.7722L193.559 105.422C193.18 105.914 192.594 106.202 191.974 106.202H187.761C186.101 106.202 185.163 104.297 186.176 102.982L197.893 87.7566L186.176 72.532C185.164 71.2169 186.1 69.3126 187.76 69.3123H191.974Z" fill="url(#paint8_linear_796_584)"/>
<path d="M309.41 71.3123C309.41 70.2077 310.305 69.3123 311.41 69.3123H316.671C317.776 69.3123 318.671 70.2077 318.671 71.3123V104.202C318.671 105.307 317.776 106.202 316.671 106.202H311.41C310.305 106.202 309.41 105.307 309.41 104.202V71.3123Z" fill="url(#paint9_linear_796_584)"/>
<path d="M357.788 71.3123C357.788 70.2077 358.683 69.3123 359.788 69.3123H365.049C366.154 69.3123 367.049 70.2077 367.049 71.3123V104.202C367.049 105.307 366.154 106.202 365.049 106.202H359.788C358.683 106.202 357.788 105.307 357.788 104.202V71.3123Z" fill="url(#paint10_linear_796_584)"/>
<path d="M179.23 74.2527C179.23 75.3573 178.335 76.2527 177.23 76.2527H162.249C161.144 76.2527 160.249 77.1481 160.249 78.2527V80.2826C160.249 81.3872 161.144 82.2826 162.249 82.2826H177.23C178.335 82.2826 179.23 83.178 179.23 84.2826V87.2234C179.23 88.328 178.335 89.2234 177.23 89.2234H162.249C161.144 89.2234 160.249 90.1188 160.249 91.2234V97.2617C160.249 98.3662 161.144 99.2617 162.249 99.2617H177.23C178.335 99.2617 179.23 100.157 179.23 101.262V104.202C179.23 105.307 178.335 106.202 177.23 106.202H155.066C153.961 106.202 153.066 105.307 153.066 104.202V71.3119C153.066 70.2073 153.961 69.3119 155.066 69.3119H177.23C178.335 69.3119 179.23 70.2073 179.23 71.3119V74.2527Z" fill="url(#paint11_linear_796_584)"/>
<path d="M232.615 80.2826C232.615 81.3872 233.511 82.2826 234.615 82.2826H244.716C245.821 82.2826 246.716 81.3872 246.716 80.2826V71.3119C246.716 70.2073 247.612 69.3119 248.716 69.3119H253.978C255.083 69.3119 255.978 70.2073 255.978 71.3119V104.202C255.978 105.307 255.083 106.202 253.978 106.202H248.716C247.612 106.202 246.716 105.307 246.716 104.202V91.2234C246.716 90.1188 245.821 89.2234 244.716 89.2234H234.615C233.511 89.2234 232.615 90.1188 232.615 91.2234V104.202C232.615 105.307 231.72 106.202 230.615 106.202H226.019C224.914 106.202 224.019 105.307 224.019 104.202V71.3119C224.019 70.2073 224.914 69.3119 226.019 69.3119H230.615C231.72 69.3119 232.615 70.2073 232.615 71.3119V80.2826Z" fill="url(#paint12_linear_796_584)"/>
<path d="M354.295 72.0416C354.295 73.1461 353.399 74.0416 352.295 74.0416H344.799C343.694 74.0416 342.799 74.937 342.799 76.0416V104.203C342.799 105.307 341.904 106.203 340.799 106.203H335.697C334.593 106.203 333.697 105.307 333.697 104.203V76.0416C333.697 74.937 332.802 74.0416 331.697 74.0416H324.164C323.06 74.0416 322.164 73.1461 322.164 72.0416V70.319C322.164 69.2144 323.06 68.319 324.164 68.319H352.295C353.399 68.319 354.295 69.2144 354.295 70.319V72.0416Z" fill="url(#paint13_linear_796_584)"/>
<path fill-rule="evenodd" clip-rule="evenodd" d="M390.788 68.3188C401.249 68.3188 409.731 76.7992 409.731 87.2603C409.731 97.7214 401.249 106.203 390.788 106.203C380.327 106.203 371.847 97.7214 371.847 87.2603C371.847 76.7993 380.327 68.319 390.788 68.3188ZM390.788 76.0464C384.595 76.0465 379.575 81.067 379.574 87.2603C379.574 93.4536 384.595 98.475 390.788 98.4751C396.982 98.4751 402.003 93.4537 402.003 87.2603C402.003 81.0669 396.982 76.0464 390.788 76.0464Z" fill="url(#paint14_linear_796_584)"/>
<path fill-rule="evenodd" clip-rule="evenodd" d="M289.302 69.3123C289.558 69.3123 289.802 69.3624 290.027 69.45C294.75 70.2345 298.353 74.3369 298.353 79.283C298.353 81.2783 297.764 83.1353 296.754 84.6941C301.236 86.084 304.491 90.2629 304.491 95.2019C304.491 101.277 299.567 106.202 293.492 106.202C293.405 106.202 293.317 106.197 293.23 106.195C293.184 106.198 293.138 106.203 293.092 106.203H277.963C277.756 106.203 277.556 106.171 277.368 106.113C277.055 106.016 276.775 105.843 276.549 105.617C276.459 105.527 276.377 105.427 276.305 105.321C276.197 105.161 276.111 104.985 276.053 104.798C275.994 104.61 275.963 104.41 275.963 104.203V71.3123C275.963 70.2078 276.859 69.3124 277.963 69.3123H289.302ZM284.127 90.3425C283.854 90.3425 283.633 90.5637 283.633 90.8367V100.062H291.632C294.316 100.062 296.492 97.886 296.492 95.2019C296.492 92.518 294.316 90.3425 291.632 90.3425H284.127ZM283.98 75.4939C283.792 75.4939 283.641 75.6455 283.641 75.8328V83.8669H288.269C290.581 83.8669 292.455 81.9925 292.455 79.6804C292.455 77.3682 290.581 75.4939 288.269 75.4939H283.98Z" fill="url(#paint15_linear_796_584)"/>
<path d="M24.2685 0.142441C25.3731 0.142445 26.2685 1.03787 26.2685 2.14244V67.6477C26.2685 69.5241 28.6197 70.3676 29.8125 68.919L85.8459 0.871112C86.2258 0.409737 86.7921 0.142447 87.3898 0.142445L113.834 0.142368C115.496 0.142363 116.433 2.05361 115.414 3.36778L26.869 117.58C26.4902 118.068 25.9067 118.354 25.2884 118.354H2C0.895429 118.354 0 117.459 0 116.354V2.14236C0 1.03779 0.895435 0.142359 2.00001 0.142363L24.2685 0.142441Z" fill="url(#paint16_linear_796_584)"/>
<path d="M70.0312 76.6757C69.7519 76.0049 69.8585 75.2354 70.3095 74.6657L87.2312 53.2896C88.1738 52.0988 90.0476 52.3518 90.6406 53.75L116.735 115.276C117.295 116.595 116.327 118.057 114.894 118.057H88.5914C87.7838 118.057 87.0554 117.571 86.745 116.826L70.0312 76.6757Z" fill="url(#paint17_linear_796_584)"/>
<path d="M66.3675 12.1218C66.6604 12.8236 66.53 13.6308 66.031 14.2047L49.6074 33.0907C48.6285 34.2163 46.8063 33.9128 46.2451 32.5306L34.1552 2.75235C33.6213 1.43727 34.5889 0 36.0083 0H59.975C60.7819 0 61.5098 0.484909 61.8206 1.22956L66.3675 12.1218Z" fill="url(#paint18_linear_796_584)"/>
<defs>
<linearGradient id="paint0_linear_796_584" x1="196.929" y1="111.715" x2="236.712" y2="-7.2976e-06" gradientUnits="userSpaceOnUse">
<stop stop-color="#2E05E0"/>
<stop offset="1" stop-color="#19037A"/>
</linearGradient>
<linearGradient id="paint1_linear_796_584" x1="196.929" y1="111.715" x2="236.712" y2="-7.2976e-06" gradientUnits="userSpaceOnUse">
<stop stop-color="#2E05E0"/>
<stop offset="1" stop-color="#19037A"/>
</linearGradient>
<linearGradient id="paint2_linear_796_584" x1="196.929" y1="111.715" x2="236.712" y2="-7.2976e-06" gradientUnits="userSpaceOnUse">
<stop stop-color="#2E05E0"/>
<stop offset="1" stop-color="#19037A"/>
</linearGradient>
<linearGradient id="paint3_linear_796_584" x1="196.929" y1="111.715" x2="236.712" y2="-7.2976e-06" gradientUnits="userSpaceOnUse">
<stop stop-color="#2E05E0"/>
<stop offset="1" stop-color="#19037A"/>
</linearGradient>
<linearGradient id="paint4_linear_796_584" x1="196.929" y1="111.715" x2="236.712" y2="-7.2976e-06" gradientUnits="userSpaceOnUse">
<stop stop-color="#2E05E0"/>
<stop offset="1" stop-color="#19037A"/>
</linearGradient>
<linearGradient id="paint5_linear_796_584" x1="196.929" y1="111.715" x2="236.712" y2="-7.2976e-06" gradientUnits="userSpaceOnUse">
<stop stop-color="#2E05E0"/>
<stop offset="1" stop-color="#19037A"/>
</linearGradient>
<linearGradient id="paint6_linear_796_584" x1="196.929" y1="111.715" x2="236.712" y2="-7.2976e-06" gradientUnits="userSpaceOnUse">
<stop stop-color="#2E05E0"/>
<stop offset="1" stop-color="#19037A"/>
</linearGradient>
<linearGradient id="paint7_linear_796_584" x1="196.929" y1="111.715" x2="236.712" y2="-7.2976e-06" gradientUnits="userSpaceOnUse">
<stop stop-color="#2E05E0"/>
<stop offset="1" stop-color="#19037A"/>
</linearGradient>
<linearGradient id="paint8_linear_796_584" x1="196.929" y1="111.715" x2="236.712" y2="-7.2976e-06" gradientUnits="userSpaceOnUse">
<stop stop-color="#2E05E0"/>
<stop offset="1" stop-color="#19037A"/>
</linearGradient>
<linearGradient id="paint9_linear_796_584" x1="196.929" y1="111.715" x2="236.712" y2="-7.2976e-06" gradientUnits="userSpaceOnUse">
<stop stop-color="#2E05E0"/>
<stop offset="1" stop-color="#19037A"/>
</linearGradient>
<linearGradient id="paint10_linear_796_584" x1="196.929" y1="111.715" x2="236.712" y2="-7.2976e-06" gradientUnits="userSpaceOnUse">
<stop stop-color="#2E05E0"/>
<stop offset="1" stop-color="#19037A"/>
</linearGradient>
<linearGradient id="paint11_linear_796_584" x1="196.929" y1="111.715" x2="236.712" y2="-7.2976e-06" gradientUnits="userSpaceOnUse">
<stop stop-color="#2E05E0"/>
<stop offset="1" stop-color="#19037A"/>
</linearGradient>
<linearGradient id="paint12_linear_796_584" x1="196.929" y1="111.715" x2="236.712" y2="-7.2976e-06" gradientUnits="userSpaceOnUse">
<stop stop-color="#2E05E0"/>
<stop offset="1" stop-color="#19037A"/>
</linearGradient>
<linearGradient id="paint13_linear_796_584" x1="196.929" y1="111.715" x2="236.712" y2="-7.2976e-06" gradientUnits="userSpaceOnUse">
<stop stop-color="#2E05E0"/>
<stop offset="1" stop-color="#19037A"/>
</linearGradient>
<linearGradient id="paint14_linear_796_584" x1="196.929" y1="111.715" x2="236.712" y2="-7.2976e-06" gradientUnits="userSpaceOnUse">
<stop stop-color="#2E05E0"/>
<stop offset="1" stop-color="#19037A"/>
</linearGradient>
<linearGradient id="paint15_linear_796_584" x1="196.929" y1="111.715" x2="236.712" y2="-7.2976e-06" gradientUnits="userSpaceOnUse">
<stop stop-color="#2E05E0"/>
<stop offset="1" stop-color="#19037A"/>
</linearGradient>
<linearGradient id="paint16_linear_796_584" x1="196.929" y1="111.715" x2="236.712" y2="-7.2976e-06" gradientUnits="userSpaceOnUse">
<stop stop-color="#2E05E0"/>
<stop offset="1" stop-color="#19037A"/>
</linearGradient>
<linearGradient id="paint17_linear_796_584" x1="196.929" y1="111.715" x2="236.712" y2="-7.2976e-06" gradientUnits="userSpaceOnUse">
<stop stop-color="#2E05E0"/>
<stop offset="1" stop-color="#19037A"/>
</linearGradient>
<linearGradient id="paint18_linear_796_584" x1="196.929" y1="111.715" x2="236.712" y2="-7.2976e-06" gradientUnits="userSpaceOnUse">
<stop stop-color="#2E05E0"/>
<stop offset="1" stop-color="#19037A"/>
</linearGradient>
</defs>
</svg>
