<svg width="153" height="173" viewBox="0 0 153 173" fill="none" xmlns="http://www.w3.org/2000/svg">
<path d="M59.2227 81.9834L92.1631 81.9844C92.9551 81.9844 93.6106 82.6002 93.6602 83.3906L97.9385 151.684C97.9678 152.152 97.7766 152.608 97.4209 152.914L76.7705 170.699C76.2095 171.182 75.3802 171.184 74.8174 170.703L54.0186 152.912C53.6607 152.606 53.467 152.15 53.4961 151.68L57.7256 83.3906C57.7746 82.5998 58.4303 81.9834 59.2227 81.9834Z" fill="url(#paint0_linear_1026_2406)" stroke="#C33838"/>
<g filter="url(#filter0_d_1026_2406)">
<path d="M54.6893 81.4854H44.6687C44.1424 81.4854 43.7062 81.8933 43.671 82.4184L40.0106 136.978C39.9623 137.698 40.6686 138.23 41.3472 137.986L74.6694 125.986C75.2212 125.787 75.4843 125.159 75.2386 124.626L55.5972 82.0663C55.4338 81.7122 55.0793 81.4854 54.6893 81.4854Z" fill="url(#paint1_linear_1026_2406)"/>
<path d="M44.6689 81.9854H54.6895C54.8843 81.9854 55.0618 82.0985 55.1436 82.2754L74.7842 124.836C74.9071 125.102 74.7759 125.416 74.5 125.516L41.1777 137.516C40.8385 137.638 40.4856 137.372 40.5098 137.012L44.1699 82.4521C44.1875 82.1896 44.4058 81.9854 44.6689 81.9854Z" stroke="#C33838"/>
</g>
<g filter="url(#filter1_d_1026_2406)">
<path d="M96.7248 81.4854H106.745C107.272 81.4854 107.708 81.8933 107.743 82.4184L111.403 136.978C111.452 137.698 110.746 138.23 110.067 137.986L76.7446 125.986C76.1928 125.787 75.9297 125.159 76.1755 124.626L95.8168 82.0663C95.9803 81.7122 96.3347 81.4854 96.7248 81.4854Z" fill="url(#paint2_linear_1026_2406)"/>
<path d="M106.745 81.9854H96.7246C96.5297 81.9854 96.3523 82.0985 96.2705 82.2754L76.6299 124.836C76.507 125.102 76.6382 125.416 76.9141 125.516L110.236 137.516C110.576 137.638 110.928 137.372 110.904 137.012L107.244 82.4521C107.227 82.1896 107.008 81.9854 106.745 81.9854Z" stroke="#C33838"/>
</g>
<g filter="url(#filter2_f_1026_2406)" style="mix-blend-mode:lighten">
<path d="M76.1888 24L128.377 52.278V108.834L76.1888 137.112L24.0003 108.834L24.0003 52.278L76.1888 24Z" fill="url(#paint3_linear_1026_2406)"/>
</g>
<g filter="url(#filter3_f_1026_2406)" style="mix-blend-mode:lighten">
<path d="M76.1888 24L128.377 52.278V108.834L76.1888 137.112L24.0003 108.834L24.0003 52.278L76.1888 24Z" fill="url(#paint4_linear_1026_2406)"/>
</g>
<g filter="url(#filter4_f_1026_2406)" style="mix-blend-mode:lighten">
<path d="M76.1888 24L128.377 52.278V108.834L76.1888 137.112L24.0003 108.834L24.0003 52.278L76.1888 24Z" fill="url(#paint5_linear_1026_2406)"/>
</g>
<g filter="url(#filter5_di_1026_2406)">
<path d="M73.8126 26.4251C75.0014 25.781 76.4351 25.781 77.6238 26.4251L124.53 51.8411C125.821 52.5404 126.625 53.8902 126.625 55.358V105.761C126.625 107.228 125.821 108.578 124.53 109.277L77.6238 134.693C76.4351 135.338 75.0014 135.338 73.8126 134.693L26.9062 109.277C25.6157 108.578 24.8118 107.228 24.8118 105.761L24.8118 55.358C24.8118 53.8902 25.6157 52.5404 26.9062 51.8411L73.8126 26.4251Z" fill="url(#paint6_linear_1026_2406)"/>
</g>
<path d="M126.7 108.141V52.9745L101.247 39.1828L50.3406 121.933L75.7938 135.725L126.7 108.141Z" fill="url(#paint7_linear_1026_2406)"/>
<path d="M24.8115 52.9759L24.8115 108.143L50.2647 121.934L101.171 39.1843L75.718 25.3926L24.8115 52.9759Z" fill="url(#paint8_linear_1026_2406)"/>
<path d="M75.2412 36.3809C75.5384 36.2199 75.8972 36.2199 76.1943 36.3809L116.346 58.1367C116.668 58.3115 116.869 58.6497 116.869 59.0166V102.099C116.869 102.465 116.668 102.803 116.346 102.978L76.1943 124.733C75.8972 124.894 75.5384 124.894 75.2412 124.733L35.0898 102.978C34.7675 102.803 34.5665 102.465 34.5664 102.099V59.0166C34.5664 58.6497 34.7673 58.3116 35.0898 58.1367L75.2412 36.3809Z" stroke="url(#paint9_linear_1026_2406)" stroke-width="6"/>
<path d="M75.2422 38.8516C75.5394 38.6905 75.8981 38.6905 76.1953 38.8516L114.067 59.373C114.39 59.5479 114.591 59.8852 114.591 60.252V100.864C114.591 101.231 114.39 101.568 114.067 101.743L76.1953 122.264C75.8981 122.425 75.5394 122.425 75.2422 122.264L37.3701 101.743C37.0477 101.568 36.8468 101.231 36.8467 100.864V60.252C36.8467 59.8852 37.0477 59.5479 37.3701 59.373L75.2422 38.8516Z" stroke="url(#paint10_linear_1026_2406)" stroke-width="6"/>
<g filter="url(#filter6_d_1026_2406)">
<path d="M80.9078 65.6401C81.6572 66.7007 81.1863 68.1961 80.231 69.0758C78.7774 70.4144 77.8594 72.3807 77.8594 74.5725C77.8594 78.6062 80.9682 81.8764 84.8028 81.8764C88.6374 81.8764 91.7459 78.6062 91.7459 74.5725C91.7459 74.4742 91.7441 74.3763 91.7404 74.279C91.7031 73.2879 92.1568 72.2828 93.0663 71.8875L95.8479 70.6787C97.2763 70.0579 98.8349 71.236 98.6272 72.7797L97.0607 84.4198C97.0409 84.567 96.9089 84.6712 96.7604 84.6712C94.9694 84.6712 93.5174 86.1984 93.5173 88.0823C93.5173 89.0496 93.9001 89.9227 94.515 90.5434C95.2517 91.287 96.0102 92.2285 95.8706 93.2659L95.7596 94.0911C95.6695 94.7608 95.2474 95.3397 94.6373 95.6302L76.4415 104.295C75.8975 104.554 75.2658 104.554 74.7218 104.295L56.536 95.635C55.9204 95.3419 55.4966 94.7553 55.4115 94.0788L55.3342 93.4641C55.1959 92.3646 56.0623 91.3849 56.8696 90.6257C57.5336 90.0012 57.9516 89.0932 57.9516 88.0823C57.9516 86.1985 56.4998 84.6713 54.7089 84.6712C54.4474 84.6712 54.2062 84.4933 54.1736 84.2338L52.7372 72.807C52.5423 71.2566 54.121 70.0916 55.545 70.735L57.6302 71.677C58.5412 72.0886 58.9795 73.1123 58.9202 74.1103C58.9111 74.2631 58.9065 74.4173 58.9065 74.5725C58.9065 78.6062 62.0151 81.8764 65.8497 81.8764C69.6843 81.8764 72.7928 78.6062 72.7928 74.5725C72.7928 72.4877 71.9623 70.6072 70.6304 69.2766C69.735 68.382 69.3337 66.9245 70.0831 65.9045L74.0526 60.5008C74.861 59.4004 76.51 59.4156 77.2979 60.5308L80.9078 65.6401Z" fill="url(#paint11_linear_1026_2406)"/>
<path d="M72.4404 59.3164C74.0572 57.1157 77.3558 57.1467 78.9316 59.377L82.541 64.4863C84.1038 66.6983 82.9377 69.3019 81.5859 70.5469C80.5396 71.5105 79.8595 72.945 79.8594 74.5723C79.8594 77.598 82.1669 79.876 84.8027 79.876C87.4385 79.876 89.7461 77.5981 89.7461 74.5723C89.7461 74.4993 89.7449 74.4267 89.7422 74.3545C89.684 72.8096 90.3843 70.873 92.2695 70.0537L95.0508 68.8447C97.9078 67.6031 101.025 69.9596 100.609 73.0469L99.043 84.6865C98.8756 85.9299 97.8024 86.6707 96.7607 86.6709C96.1685 86.6709 95.5178 87.2065 95.5176 88.082C95.5176 88.5157 95.6873 88.8851 95.9355 89.1357C96.3424 89.5465 96.8603 90.1127 97.2539 90.7949C97.6536 91.4876 98.0005 92.4319 97.8525 93.5322L97.7422 94.3574C97.562 95.6968 96.7172 96.8545 95.4971 97.4355L77.3018 106.101C76.2139 106.619 74.9502 106.618 73.8623 106.101L55.6758 97.4404C54.4448 96.8541 53.5969 95.681 53.4268 94.3281L53.3496 93.7139C53.2028 92.546 53.6102 91.5592 54.0547 90.8525C54.4934 90.155 55.0618 89.5802 55.499 89.1689C55.7653 88.9185 55.9512 88.5355 55.9512 88.082C55.951 87.2063 55.3011 86.671 54.709 86.6709C53.632 86.6709 52.3705 85.9231 52.1895 84.4834L50.7529 73.0566C50.3632 69.9559 53.5202 67.6257 56.3682 68.9121L58.4541 69.8545C60.3423 70.7078 61.009 72.6763 60.917 74.2285C60.9103 74.3419 60.9063 74.4566 60.9062 74.5723C60.9062 77.5981 63.2139 79.8759 65.8496 79.876C68.4854 79.876 70.793 77.5981 70.793 74.5723C70.7929 73.0245 70.1775 71.6512 69.2168 70.6914C67.9347 69.4104 66.9095 66.8472 68.4717 64.7207L72.4404 59.3164Z" stroke="#F27600" stroke-width="4"/>
</g>
<mask id="mask0_1026_2406" style="mask-type:alpha" maskUnits="userSpaceOnUse" x="24" y="25" width="103" height="111">
<path d="M73.8126 26.4222C75.0014 25.7781 76.4351 25.7781 77.6238 26.4222L124.53 51.8382C125.821 52.5374 126.625 53.8873 126.625 55.3551V105.758C126.625 107.225 125.821 108.575 124.53 109.275L77.6238 134.691C76.4351 135.335 75.0014 135.335 73.8126 134.691L26.9062 109.275C25.6157 108.575 24.8118 107.225 24.8118 105.758V55.3551C24.8118 53.8873 25.6157 52.5374 26.9062 51.8382L73.8126 26.4222Z" fill="url(#paint12_linear_1026_2406)"/>
</mask>
<g mask="url(#mask0_1026_2406)">
<rect width="137.646" height="28.8616" transform="matrix(0.608309 -0.7937 0.793697 0.608313 8.8291 109.921)" fill="url(#paint13_linear_1026_2406)" fill-opacity="0.2"/>
<rect width="137.646" height="25.6936" transform="matrix(0.577698 -0.816251 0.816248 0.577701 47.1816 141.54)" fill="url(#paint14_linear_1026_2406)" fill-opacity="0.2"/>
</g>
<defs>
<filter id="filter0_d_1026_2406" x="38.0078" y="79.4854" width="43.3232" height="64.5605" filterUnits="userSpaceOnUse" color-interpolation-filters="sRGB">
<feFlood flood-opacity="0" result="BackgroundImageFix"/>
<feColorMatrix in="SourceAlpha" type="matrix" values="0 0 0 0 0 0 0 0 0 0 0 0 0 0 0 0 0 0 127 0" result="hardAlpha"/>
<feOffset dx="2" dy="2"/>
<feGaussianBlur stdDeviation="2"/>
<feComposite in2="hardAlpha" operator="out"/>
<feColorMatrix type="matrix" values="0 0 0 0 0 0 0 0 0 0 0 0 0 0 0 0 0 0 0.25 0"/>
<feBlend mode="normal" in2="BackgroundImageFix" result="effect1_dropShadow_1026_2406"/>
<feBlend mode="normal" in="SourceGraphic" in2="effect1_dropShadow_1026_2406" result="shape"/>
</filter>
<filter id="filter1_d_1026_2406" x="70.083" y="79.4854" width="43.3232" height="64.5605" filterUnits="userSpaceOnUse" color-interpolation-filters="sRGB">
<feFlood flood-opacity="0" result="BackgroundImageFix"/>
<feColorMatrix in="SourceAlpha" type="matrix" values="0 0 0 0 0 0 0 0 0 0 0 0 0 0 0 0 0 0 127 0" result="hardAlpha"/>
<feOffset dx="-2" dy="2"/>
<feGaussianBlur stdDeviation="2"/>
<feComposite in2="hardAlpha" operator="out"/>
<feColorMatrix type="matrix" values="0 0 0 0 0 0 0 0 0 0 0 0 0 0 0 0 0 0 0.25 0"/>
<feBlend mode="normal" in2="BackgroundImageFix" result="effect1_dropShadow_1026_2406"/>
<feBlend mode="normal" in="SourceGraphic" in2="effect1_dropShadow_1026_2406" result="shape"/>
</filter>
<filter id="filter2_f_1026_2406" x="0" y="0" width="152.377" height="161.112" filterUnits="userSpaceOnUse" color-interpolation-filters="sRGB">
<feFlood flood-opacity="0" result="BackgroundImageFix"/>
<feBlend mode="normal" in="SourceGraphic" in2="BackgroundImageFix" result="shape"/>
<feGaussianBlur stdDeviation="12" result="effect1_foregroundBlur_1026_2406"/>
</filter>
<filter id="filter3_f_1026_2406" x="12" y="12" width="128.377" height="137.112" filterUnits="userSpaceOnUse" color-interpolation-filters="sRGB">
<feFlood flood-opacity="0" result="BackgroundImageFix"/>
<feBlend mode="normal" in="SourceGraphic" in2="BackgroundImageFix" result="shape"/>
<feGaussianBlur stdDeviation="6" result="effect1_foregroundBlur_1026_2406"/>
</filter>
<filter id="filter4_f_1026_2406" x="18" y="18" width="116.377" height="125.112" filterUnits="userSpaceOnUse" color-interpolation-filters="sRGB">
<feFlood flood-opacity="0" result="BackgroundImageFix"/>
<feBlend mode="normal" in="SourceGraphic" in2="BackgroundImageFix" result="shape"/>
<feGaussianBlur stdDeviation="3" result="effect1_foregroundBlur_1026_2406"/>
</filter>
<filter id="filter5_di_1026_2406" x="16.8115" y="21.9424" width="117.813" height="125.234" filterUnits="userSpaceOnUse" color-interpolation-filters="sRGB">
<feFlood flood-opacity="0" result="BackgroundImageFix"/>
<feColorMatrix in="SourceAlpha" type="matrix" values="0 0 0 0 0 0 0 0 0 0 0 0 0 0 0 0 0 0 127 0" result="hardAlpha"/>
<feOffset dy="4"/>
<feGaussianBlur stdDeviation="4"/>
<feComposite in2="hardAlpha" operator="out"/>
<feColorMatrix type="matrix" values="0 0 0 0 0 0 0 0 0 0 0 0 0 0 0 0 0 0 0.25 0"/>
<feBlend mode="normal" in2="BackgroundImageFix" result="effect1_dropShadow_1026_2406"/>
<feBlend mode="normal" in="SourceGraphic" in2="effect1_dropShadow_1026_2406" result="shape"/>
<feColorMatrix in="SourceAlpha" type="matrix" values="0 0 0 0 0 0 0 0 0 0 0 0 0 0 0 0 0 0 127 0" result="hardAlpha"/>
<feOffset/>
<feGaussianBlur stdDeviation="7.5"/>
<feComposite in2="hardAlpha" operator="arithmetic" k2="-1" k3="1"/>
<feColorMatrix type="matrix" values="0 0 0 0 1 0 0 0 0 0.723558 0 0 0 0 0.278846 0 0 0 0.25 0"/>
<feBlend mode="normal" in2="shape" result="effect2_innerShadow_1026_2406"/>
</filter>
<filter id="filter6_d_1026_2406" x="46.7197" y="53.6846" width="57.9277" height="56.8047" filterUnits="userSpaceOnUse" color-interpolation-filters="sRGB">
<feFlood flood-opacity="0" result="BackgroundImageFix"/>
<feColorMatrix in="SourceAlpha" type="matrix" values="0 0 0 0 0 0 0 0 0 0 0 0 0 0 0 0 0 0 127 0" result="hardAlpha"/>
<feOffset/>
<feGaussianBlur stdDeviation="1"/>
<feComposite in2="hardAlpha" operator="out"/>
<feColorMatrix type="matrix" values="0 0 0 0 0 0 0 0 0 0 0 0 0 0 0 0 0 0 0.25 0"/>
<feBlend mode="normal" in2="BackgroundImageFix" result="effect1_dropShadow_1026_2406"/>
<feBlend mode="normal" in="SourceGraphic" in2="effect1_dropShadow_1026_2406" result="shape"/>
</filter>
<linearGradient id="paint0_linear_1026_2406" x1="76.1874" y1="172.2" x2="75.2482" y2="81.4834" gradientUnits="userSpaceOnUse">
<stop offset="0.258794" stop-color="#A80000"/>
<stop offset="0.515146" stop-color="#8C0000"/>
</linearGradient>
<linearGradient id="paint1_linear_1026_2406" x1="39.9082" y1="137.399" x2="75.6959" y2="82.5906" gradientUnits="userSpaceOnUse">
<stop stop-color="#A80000"/>
<stop offset="0.7" stop-color="#420000"/>
</linearGradient>
<linearGradient id="paint2_linear_1026_2406" x1="111.506" y1="137.972" x2="75.7182" y2="82.0178" gradientUnits="userSpaceOnUse">
<stop stop-color="#A80000"/>
<stop offset="0.7" stop-color="#420000"/>
</linearGradient>
<linearGradient id="paint3_linear_1026_2406" x1="15.9268" y1="24" x2="136.451" y2="137.111" gradientUnits="userSpaceOnUse">
<stop stop-color="#FFD27A"/>
<stop offset="0.504808" stop-color="#F6A93B"/>
<stop offset="1" stop-color="#E8891A"/>
</linearGradient>
<linearGradient id="paint4_linear_1026_2406" x1="15.9268" y1="24" x2="136.451" y2="137.111" gradientUnits="userSpaceOnUse">
<stop stop-color="#FFD27A"/>
<stop offset="0.504808" stop-color="#F6A93B"/>
<stop offset="1" stop-color="#E8891A"/>
</linearGradient>
<linearGradient id="paint5_linear_1026_2406" x1="15.9268" y1="24" x2="136.451" y2="137.111" gradientUnits="userSpaceOnUse">
<stop stop-color="#FFD27A"/>
<stop offset="0.504808" stop-color="#F6A93B"/>
<stop offset="1" stop-color="#E8891A"/>
</linearGradient>
<linearGradient id="paint6_linear_1026_2406" x1="16.9365" y1="25.3926" x2="134.5" y2="135.725" gradientUnits="userSpaceOnUse">
<stop stop-color="#FFAE00"/>
<stop offset="0.5" stop-color="#FFC400"/>
<stop offset="1" stop-color="#F08100"/>
</linearGradient>
<linearGradient id="paint7_linear_1026_2406" x1="50.3406" y1="39.1828" x2="126.701" y2="135.724" gradientUnits="userSpaceOnUse">
<stop offset="0.456731" stop-color="white" stop-opacity="0"/>
<stop offset="0.780221" stop-color="#FF5900" stop-opacity="0.5"/>
</linearGradient>
<linearGradient id="paint8_linear_1026_2406" x1="24.8115" y1="25.3926" x2="101.172" y2="121.934" gradientUnits="userSpaceOnUse">
<stop stop-color="white" stop-opacity="0.5"/>
<stop offset="0.6" stop-color="white" stop-opacity="0.05"/>
</linearGradient>
<linearGradient id="paint9_linear_1026_2406" x1="24.7363" y1="32.7109" x2="126.7" y2="128.403" gradientUnits="userSpaceOnUse">
<stop stop-color="#FFB200"/>
<stop offset="1" stop-color="#FFBA36"/>
</linearGradient>
<linearGradient id="paint10_linear_1026_2406" x1="124.068" y1="125.934" x2="27.3687" y2="35.1821" gradientUnits="userSpaceOnUse">
<stop stop-color="#F67900"/>
<stop offset="1" stop-color="#CD6400"/>
</linearGradient>
<linearGradient id="paint11_linear_1026_2406" x1="75.696" y1="58.2637" x2="75.696" y2="104.704" gradientUnits="userSpaceOnUse">
<stop offset="0.471708" stop-color="white"/>
<stop offset="1" stop-color="#FFE5B9"/>
</linearGradient>
<linearGradient id="paint12_linear_1026_2406" x1="16.9365" y1="25.3896" x2="134.5" y2="135.723" gradientUnits="userSpaceOnUse">
<stop stop-color="#FFD27A"/>
<stop offset="0.504808" stop-color="#F6A93B"/>
<stop offset="1" stop-color="#E8891A"/>
</linearGradient>
<linearGradient id="paint13_linear_1026_2406" x1="66.8644" y1="0.527961" x2="66.7828" y2="26.3889" gradientUnits="userSpaceOnUse">
<stop stop-color="white" stop-opacity="0"/>
<stop offset="0.302885" stop-color="white"/>
<stop offset="0.7" stop-color="white"/>
<stop offset="1" stop-color="white" stop-opacity="0"/>
</linearGradient>
<linearGradient id="paint14_linear_1026_2406" x1="66.8644" y1="0.47001" x2="66.7998" y2="23.4924" gradientUnits="userSpaceOnUse">
<stop stop-color="white" stop-opacity="0"/>
<stop offset="0.302885" stop-color="white"/>
<stop offset="0.7" stop-color="white"/>
<stop offset="1" stop-color="white" stop-opacity="0"/>
</linearGradient>
</defs>
</svg>
