<svg width="117" height="119" viewBox="0 0 117 119" fill="none" xmlns="http://www.w3.org/2000/svg">
<path d="M24.2685 0.142441C25.3731 0.142445 26.2685 1.03787 26.2685 2.14244V67.6477C26.2685 69.5241 28.6197 70.3676 29.8125 68.919L85.8459 0.871112C86.2258 0.409737 86.7921 0.142447 87.3898 0.142445L113.834 0.142368C115.496 0.142363 116.433 2.05361 115.414 3.36778L26.869 117.58C26.4902 118.068 25.9067 118.354 25.2884 118.354H2C0.895429 118.354 0 117.459 0 116.354V2.14236C0 1.03779 0.895435 0.142359 2.00001 0.142363L24.2685 0.142441Z" fill="url(#paint0_linear_796_586)"/>
<path d="M70.0312 76.6757C69.7519 76.0049 69.8585 75.2354 70.3095 74.6657L87.2312 53.2896C88.1738 52.0988 90.0476 52.3518 90.6406 53.75L116.735 115.276C117.295 116.595 116.327 118.057 114.894 118.057H88.5914C87.7838 118.057 87.0554 117.571 86.745 116.826L70.0312 76.6757Z" fill="url(#paint1_linear_796_586)"/>
<path d="M66.3675 12.1218C66.6604 12.8236 66.53 13.6308 66.031 14.2047L49.6074 33.0907C48.6285 34.2163 46.8063 33.9128 46.2451 32.5306L34.1552 2.75235C33.6213 1.43727 34.5889 0 36.0083 0H59.975C60.7819 0 61.5098 0.484909 61.8206 1.22956L66.3675 12.1218Z" fill="url(#paint2_linear_796_586)"/>
<defs>
<linearGradient id="paint0_linear_796_586" x1="49.9418" y1="35.5482" x2="49.9418" y2="-1.90696e-05" gradientUnits="userSpaceOnUse">
<stop stop-color="#2E05E0"/>
<stop offset="1" stop-color="#19037A"/>
</linearGradient>
<linearGradient id="paint1_linear_796_586" x1="49.9418" y1="35.5482" x2="49.9418" y2="-1.90696e-05" gradientUnits="userSpaceOnUse">
<stop stop-color="#2E05E0"/>
<stop offset="1" stop-color="#19037A"/>
</linearGradient>
<linearGradient id="paint2_linear_796_586" x1="49.9418" y1="35.5482" x2="49.9418" y2="-1.90696e-05" gradientUnits="userSpaceOnUse">
<stop stop-color="#2E05E0"/>
<stop offset="1" stop-color="#19037A"/>
</linearGradient>
</defs>
</svg>
